<svg width="670" height="670" viewBox="0 0 670 670" fill="none" xmlns="http://www.w3.org/2000/svg">
<g clip-path="url(#clip0_128_123)">
<path d="M604.217 487.306L336.982 641.594L69.7472 487.306L69.7472 178.73L336.982 24.4413L604.217 178.73L604.217 487.306Z" fill="white"/>
<path d="M604.217 487.306L336.982 641.594L69.7472 487.306L69.7472 178.73L336.982 24.4413L604.217 178.73L604.217 487.306Z" fill="url(#paint0_angular_128_123)" fill-opacity="0.8"/>
<path d="M604.217 487.306L336.982 641.594L69.7472 487.306L69.7472 178.73L336.982 24.4413L604.217 178.73L604.217 487.306Z" stroke="white" stroke-opacity="0.5" stroke-width="8"/>
<path d="M604.217 487.306L336.982 641.594L69.7472 487.306L69.7472 178.73L336.982 24.4413L604.217 178.73L604.217 487.306Z" stroke="#A46A90" stroke-width="8"/>
<path d="M270.771 229.454C270.771 326.033 166.541 342.289 166.541 440.781V481.899H318.582V434.088H219.134C218.656 431.697 218.656 429.307 218.656 426.916C218.656 371.932 323.364 332.727 323.364 227.541C323.364 173.992 296.589 143.392 244.952 143.392C193.316 143.392 166.541 173.992 166.541 227.541V260.053H216.265V224.194C216.265 200.288 226.784 191.204 243.518 191.204C260.252 191.204 270.771 199.332 270.771 229.454ZM460.337 229.454C460.337 326.033 356.107 342.289 356.107 440.781V481.899L508.148 481.899V434.088L408.7 434.088C408.222 431.697 408.222 429.307 408.222 426.916C408.222 371.932 512.93 332.727 512.93 227.541C512.93 173.992 486.155 143.392 434.518 143.392C382.882 143.392 356.107 173.992 356.107 227.541V260.053H405.831V224.194C405.831 200.288 416.35 191.204 433.084 191.204C449.818 191.204 460.337 199.332 460.337 229.454Z" fill="white"/>
<path d="M166.541 481.899H158.541V489.899H166.541V481.899ZM318.582 481.899V489.899H326.582V481.899H318.582ZM318.582 434.088H326.582V426.088H318.582V434.088ZM219.134 434.088L211.289 435.657L212.576 442.088H219.134V434.088ZM166.541 260.053H158.541V268.053H166.541V260.053ZM216.265 260.053V268.053H224.265V260.053H216.265ZM262.771 229.454C262.771 274.295 238.949 300.401 212.757 328.997C186.768 357.37 158.541 388.129 158.541 440.781H174.541C174.541 394.942 198.429 368.327 224.555 339.804C250.477 311.503 278.771 281.192 278.771 229.454H262.771ZM158.541 440.781V481.899H174.541V440.781H158.541ZM166.541 489.899H318.582V473.899H166.541V489.899ZM326.582 481.899V434.088H310.582V481.899H326.582ZM318.582 426.088H219.134V442.088H318.582V426.088ZM226.979 432.519C226.681 431.031 226.656 429.43 226.656 426.916H210.656C210.656 429.183 210.631 432.363 211.289 435.657L226.979 432.519ZM226.656 426.916C226.656 415.781 231.945 404.752 241.41 392.168C250.995 379.424 263.495 366.743 277.022 351.332C303.536 321.125 331.364 283.143 331.364 227.541H315.364C315.364 277.125 290.837 311.339 264.997 340.777C252.347 355.189 238.671 369.192 228.623 382.55C218.455 396.069 210.656 410.559 210.656 426.916H226.656ZM331.364 227.541C331.364 199.533 324.362 176.282 309.419 159.98C294.371 143.564 272.372 135.392 244.952 135.392V151.392C269.169 151.392 286.376 158.521 297.624 170.792C308.978 183.177 315.364 202 315.364 227.541H331.364ZM244.952 135.392C217.533 135.392 195.534 143.564 180.486 159.98C165.543 176.282 158.541 199.533 158.541 227.541H174.541C174.541 202 180.927 183.177 192.28 170.792C203.528 158.521 220.735 151.392 244.952 151.392V135.392ZM158.541 227.541V260.053H174.541V227.541H158.541ZM166.541 268.053H216.265V252.053H166.541V268.053ZM224.265 260.053V224.194H208.265V260.053H224.265ZM224.265 224.194C224.265 213.235 226.699 207.276 229.569 204.079C232.284 201.055 236.569 199.204 243.518 199.204V183.204C233.733 183.204 224.392 185.895 217.663 193.39C211.091 200.712 208.265 211.248 208.265 224.194H224.265ZM243.518 199.204C250.642 199.204 254.621 200.899 257.217 204.085C260.177 207.72 262.771 214.986 262.771 229.454H278.771C278.771 213.8 276.105 201.941 269.623 193.981C262.775 185.573 253.128 183.204 243.518 183.204V199.204ZM356.107 481.899H348.107V489.899H356.107V481.899ZM508.148 481.899V489.899H516.148V481.899H508.148ZM508.148 434.088H516.148V426.088H508.148V434.088ZM408.7 434.088L400.855 435.657L402.142 442.088H408.7V434.088ZM356.107 260.053H348.107V268.053H356.107V260.053ZM405.831 260.053V268.053H413.831V260.053H405.831ZM452.337 229.454C452.337 274.295 428.515 300.401 402.323 328.997C376.334 357.37 348.107 388.129 348.107 440.781H364.107C364.107 394.942 387.995 368.327 414.121 339.804C440.043 311.503 468.337 281.192 468.337 229.454H452.337ZM348.107 440.781V481.899H364.107V440.781H348.107ZM356.107 489.899L508.148 489.899V473.899L356.107 473.899V489.899ZM516.148 481.899V434.088H500.148V481.899H516.148ZM508.148 426.088L408.7 426.088V442.088L508.148 442.088V426.088ZM416.545 432.519C416.247 431.031 416.222 429.43 416.222 426.916H400.222C400.222 429.183 400.197 432.363 400.855 435.657L416.545 432.519ZM416.222 426.916C416.222 415.781 421.511 404.752 430.976 392.168C440.561 379.424 453.061 366.743 466.588 351.332C493.102 321.125 520.93 283.143 520.93 227.541H504.93C504.93 277.125 480.403 311.339 454.563 340.777C441.913 355.189 428.237 369.192 418.189 382.55C408.021 396.069 400.222 410.559 400.222 426.916H416.222ZM520.93 227.541C520.93 199.533 513.928 176.282 498.985 159.98C483.937 143.564 461.938 135.392 434.518 135.392V151.392C458.735 151.392 475.942 158.521 487.19 170.792C498.544 183.177 504.93 202 504.93 227.541H520.93ZM434.518 135.392C407.099 135.392 385.1 143.564 370.052 159.98C355.109 176.282 348.107 199.533 348.107 227.541L364.107 227.541C364.107 202 370.493 183.177 381.846 170.792C393.094 158.521 410.301 151.392 434.518 151.392V135.392ZM348.107 227.541V260.053H364.107V227.541L348.107 227.541ZM356.107 268.053H405.831V252.053H356.107V268.053ZM413.831 260.053V224.194H397.831V260.053H413.831ZM413.831 224.194C413.831 213.235 416.265 207.276 419.135 204.079C421.85 201.055 426.134 199.204 433.084 199.204V183.204C423.299 183.204 413.958 185.895 407.229 193.39C400.657 200.712 397.831 211.248 397.831 224.194H413.831ZM433.084 199.204C440.208 199.204 444.187 200.899 446.783 204.085C449.743 207.72 452.337 214.986 452.337 229.454H468.337C468.337 213.8 465.671 201.941 459.189 193.981C452.341 185.573 442.694 183.204 433.084 183.204V199.204Z" fill="#A46A90"/>
</g>
<defs>
<radialGradient id="paint0_angular_128_123" cx="0" cy="0" r="1" gradientUnits="userSpaceOnUse" gradientTransform="translate(336.982 333.018) rotate(-90) scale(313.195)">
<stop stop-color="white"/>
<stop offset="0.0001" stop-color="#FEF6FB"/>
<stop offset="0.09375" stop-color="#FDEEF8"/>
<stop offset="0.4999" stop-color="#FACFEC"/>
<stop offset="0.5" stop-color="#F496D6"/>
<stop offset="1" stop-color="#FAE6F3"/>
</radialGradient>
<clipPath id="clip0_128_123">
<rect width="670" height="670" fill="white"/>
</clipPath>
</defs>
</svg>
