<svg width="670" height="670" viewBox="0 0 670 670" fill="none" xmlns="http://www.w3.org/2000/svg">
<g clip-path="url(#clip0_128_123)">
<path d="M603.217 486.729L336.982 640.44L70.7472 486.729L70.7472 179.307L336.982 25.596L603.217 179.307L603.217 486.729Z" fill="white"/>
<path d="M603.217 486.729L336.982 640.44L70.7472 486.729L70.7472 179.307L336.982 25.596L603.217 179.307L603.217 486.729Z" fill="url(#paint0_angular_128_123)" fill-opacity="0.8"/>
<path d="M603.217 486.729L336.982 640.44L70.7472 486.729L70.7472 179.307L336.982 25.596L603.217 179.307L603.217 486.729Z" stroke="white" stroke-opacity="0.5" stroke-width="10"/>
<path d="M603.217 486.729L336.982 640.44L70.7472 486.729L70.7472 179.307L336.982 25.596L603.217 179.307L603.217 486.729Z" stroke="#5F264B" stroke-width="10"/>
<path d="M270.771 229.454C270.771 326.033 166.541 342.289 166.541 440.781V481.899H318.582V434.088H219.134C218.656 431.697 218.656 429.307 218.656 426.916C218.656 371.932 323.364 332.727 323.364 227.541C323.364 173.992 296.589 143.392 244.952 143.392C193.316 143.392 166.541 173.992 166.541 227.541V260.053H216.265V224.194C216.265 200.288 226.784 191.204 243.518 191.204C260.252 191.204 270.771 199.332 270.771 229.454ZM460.337 229.454C460.337 326.033 356.107 342.289 356.107 440.781V481.899L508.148 481.899V434.088L408.7 434.088C408.222 431.697 408.222 429.307 408.222 426.916C408.222 371.932 512.93 332.727 512.93 227.541C512.93 173.992 486.155 143.392 434.518 143.392C382.882 143.392 356.107 173.992 356.107 227.541V260.053H405.831V224.194C405.831 200.288 416.35 191.204 433.084 191.204C449.818 191.204 460.337 199.332 460.337 229.454Z" fill="white"/>
<path d="M166.541 481.899H156.541V491.899H166.541V481.899ZM318.582 481.899V491.899H328.582V481.899H318.582ZM318.582 434.088H328.582V424.088H318.582V434.088ZM219.134 434.088L209.328 436.049L210.936 444.088H219.134V434.088ZM166.541 260.053H156.541V270.053H166.541V260.053ZM216.265 260.053V270.053H226.265V260.053H216.265ZM260.771 229.454C260.771 273.433 237.508 299.013 211.282 327.646C185.31 356 156.541 387.277 156.541 440.781H176.541C176.541 395.794 199.887 369.696 226.03 341.155C251.918 312.891 280.771 282.054 280.771 229.454H260.771ZM156.541 440.781V481.899H176.541V440.781H156.541ZM166.541 491.899H318.582V471.899H166.541V491.899ZM328.582 481.899V434.088H308.582V481.899H328.582ZM318.582 424.088H219.134V444.088H318.582V424.088ZM228.94 432.127C228.687 430.864 228.656 429.461 228.656 426.916H208.656C208.656 429.152 208.624 432.53 209.328 436.049L228.94 432.127ZM228.656 426.916C228.656 416.434 233.631 405.838 243.008 393.37C252.536 380.703 264.889 368.187 278.525 352.651C305.124 322.348 333.364 283.895 333.364 227.541H313.364C313.364 276.373 289.25 310.115 263.494 339.458C250.954 353.745 237.13 367.913 227.025 381.348C216.769 394.983 208.656 409.906 208.656 426.916H228.656ZM333.364 227.541C333.364 199.225 326.285 175.42 310.893 158.629C295.37 141.694 272.772 133.392 244.952 133.392V153.392C268.769 153.392 285.377 160.391 296.15 172.143C307.055 184.039 313.364 202.308 313.364 227.541H333.364ZM244.952 133.392C217.132 133.392 194.535 141.694 179.011 158.629C163.62 175.42 156.541 199.225 156.541 227.541H176.541C176.541 202.308 182.85 184.039 193.755 172.143C204.528 160.391 221.136 153.392 244.952 153.392V133.392ZM156.541 227.541V260.053H176.541V227.541H156.541ZM166.541 270.053H216.265V250.053H166.541V270.053ZM226.265 260.053V224.194H206.265V260.053H226.265ZM226.265 224.194C226.265 213.483 228.651 208.096 231.058 205.415C233.27 202.95 236.923 201.204 243.518 201.204V181.204C233.379 181.204 223.405 184 216.175 192.054C209.139 199.891 206.265 210.999 206.265 224.194H226.265ZM243.518 201.204C250.331 201.204 253.602 202.815 255.666 205.348C258.186 208.443 260.771 215.134 260.771 229.454H280.771C280.771 213.652 278.096 201.218 271.173 192.718C263.794 183.658 253.439 181.204 243.518 181.204V201.204ZM356.107 481.899H346.107V491.899H356.107V481.899ZM508.148 481.899V491.899H518.148V481.899H508.148ZM508.148 434.088H518.148V424.088H508.148V434.088ZM408.7 434.088L398.894 436.049L400.502 444.088H408.7V434.088ZM356.107 260.053H346.107V270.053H356.107V260.053ZM405.831 260.053V270.053H415.831V260.053H405.831ZM450.337 229.454C450.337 273.433 427.074 299.013 400.848 327.646C374.876 356 346.107 387.277 346.107 440.781H366.107C366.107 395.794 389.453 369.696 415.596 341.155C441.484 312.891 470.337 282.054 470.337 229.454H450.337ZM346.107 440.781V481.899H366.107V440.781H346.107ZM356.107 491.899L508.148 491.899V471.899L356.107 471.899V491.899ZM518.148 481.899V434.088H498.148V481.899H518.148ZM508.148 424.088L408.7 424.088V444.088L508.148 444.088V424.088ZM418.506 432.127C418.253 430.864 418.222 429.461 418.222 426.916H398.222C398.222 429.152 398.19 432.53 398.894 436.049L418.506 432.127ZM418.222 426.916C418.222 416.434 423.197 405.838 432.574 393.37C442.102 380.703 454.455 368.187 468.091 352.651C494.69 322.348 522.93 283.895 522.93 227.541H502.93C502.93 276.373 478.816 310.115 453.06 339.458C440.52 353.745 426.696 367.913 416.591 381.348C406.335 394.983 398.222 409.906 398.222 426.916H418.222ZM522.93 227.541C522.93 199.225 515.851 175.42 500.459 158.629C484.936 141.694 462.338 133.392 434.518 133.392V153.392C458.335 153.392 474.943 160.391 485.716 172.143C496.621 184.039 502.93 202.308 502.93 227.541H522.93ZM434.518 133.392C406.698 133.392 384.101 141.694 368.577 158.629C353.186 175.42 346.107 199.225 346.107 227.541L366.107 227.541C366.107 202.308 372.416 184.039 383.321 172.143C394.094 160.391 410.702 153.392 434.518 153.392V133.392ZM346.107 227.541V260.053H366.107V227.541L346.107 227.541ZM356.107 270.053H405.831V250.053H356.107V270.053ZM415.831 260.053V224.194H395.831V260.053H415.831ZM415.831 224.194C415.831 213.483 418.216 208.096 420.624 205.415C422.836 202.95 426.489 201.204 433.084 201.204V181.204C422.945 181.204 412.971 184 405.741 192.054C398.705 199.891 395.831 210.999 395.831 224.194H415.831ZM433.084 201.204C439.897 201.204 443.168 202.815 445.232 205.348C447.752 208.443 450.337 215.134 450.337 229.454H470.337C470.337 213.652 467.662 201.218 460.739 192.718C453.36 183.658 443.005 181.204 433.084 181.204V201.204Z" fill="#5F264B"/>
</g>
<defs>
<radialGradient id="paint0_angular_128_123" cx="0" cy="0" r="1" gradientUnits="userSpaceOnUse" gradientTransform="translate(336.982 333.018) rotate(-90) scale(313.195)">
<stop stop-color="white"/>
<stop offset="0.0001" stop-color="#FEF6FB"/>
<stop offset="0.09375" stop-color="#FDEEF8"/>
<stop offset="0.4999" stop-color="#FACFEC"/>
<stop offset="0.5" stop-color="#F496D6"/>
<stop offset="1" stop-color="#FAE6F3"/>
</radialGradient>
<clipPath id="clip0_128_123">
<rect width="670" height="670" fill="white"/>
</clipPath>
</defs>
</svg>
