<svg width="2610" height="2610" viewBox="0 0 2610 2610" fill="none" xmlns="http://www.w3.org/2000/svg">
<path d="M1304.83 1305.03L237 688.514V1921.54L1304.83 2538.05V1305.03Z" fill="#47CFED"/>
<path d="M1304.83 1305.03L237 688.514V1921.54L1304.83 2538.05V1305.03Z" fill="url(#paint0_linear_96_1362)" fill-opacity="0.2"/>
<path d="M237 688.515L1304.83 1305.03L2372.67 688.515L1304.83 72L237 688.515Z" fill="#47CFED"/>
<path d="M237 688.515L1304.83 1305.03L2372.67 688.515L1304.83 72L237 688.515Z" fill="url(#paint1_linear_96_1362)" fill-opacity="0.2"/>
<path d="M1304.83 2538.05L2372.66 1921.54V688.514L1304.83 1305.03V2538.05Z" fill="#47CFED"/>
<path d="M1304.83 2538.05L2372.66 1921.54V688.514L1304.83 1305.03V2538.05Z" fill="url(#paint2_linear_96_1362)" fill-opacity="0.2"/>
<path d="M695.5 1956V1958.5H698H1283.38H1285.88V1956V1771.96V1769.46H1283.38H902.57C901.157 1761.2 901.151 1752.9 901.151 1744.35C901.151 1692.26 925.955 1643.68 963.639 1593.59C989.212 1559.6 1020.52 1525.15 1053.78 1488.55C1069.58 1471.16 1085.83 1453.28 1102.1 1434.75C1202.99 1319.83 1304.29 1180.29 1304.29 976.91C1304.29 873.462 1278.43 791.792 1227.24 735.969C1176.02 680.109 1099.8 650.5 999.897 650.5C899.991 650.5 823.769 680.109 772.552 735.969C721.368 791.792 695.5 873.462 695.5 976.91V1102.06V1104.56H698H889.447H891.947V1102.06V964.027C891.947 918.327 902.01 887.296 919.609 867.696C937.16 848.15 962.602 839.539 994.374 839.539C1026.2 839.539 1051.55 847.256 1069.06 868.755C1086.69 890.394 1096.8 926.484 1096.8 984.271C1096.8 1168.27 998.044 1276.05 898.123 1385.11L896.807 1386.55C796.504 1496.03 695.5 1607.1 695.5 1797.73V1956ZM1550.54 973.229V975.729H1553.04H1707.01V1956V1958.5H1709.51H1912H1914.5V1956V667.723V665.223H1912H1775.78H1774.02L1773.43 666.873C1757.77 710.143 1741.37 750.082 1709.66 779.299C1678.04 808.423 1630.86 827.178 1553.04 827.178H1550.54V829.678V973.229Z" fill="#FFF6E6" stroke="#FFF6E6" stroke-width="5"/>
<defs>
<linearGradient id="paint0_linear_96_1362" x1="770.916" y1="688.514" x2="770.916" y2="2538.05" gradientUnits="userSpaceOnUse">
<stop stop-color="#167387"/>
<stop offset="0.479167" stop-color="#47CFED"/>
<stop offset="1" stop-color="#BFF3FF"/>
</linearGradient>
<linearGradient id="paint1_linear_96_1362" x1="1304.83" y1="72" x2="1304.83" y2="1305.03" gradientUnits="userSpaceOnUse">
<stop stop-color="#167387"/>
<stop offset="0.479167" stop-color="#47CFED"/>
<stop offset="1" stop-color="#BFF3FF"/>
</linearGradient>
<linearGradient id="paint2_linear_96_1362" x1="1838.75" y1="688.514" x2="1838.75" y2="2538.05" gradientUnits="userSpaceOnUse">
<stop stop-color="#167387"/>
<stop offset="0.479167" stop-color="#47CFED"/>
<stop offset="1" stop-color="#BFF3FF"/>
</linearGradient>
</defs>
</svg>
