<svg width="500" height="500" viewBox="0 0 500 500" fill="none" xmlns="http://www.w3.org/2000/svg">
<rect width="500" height="500" fill="#303030"/>
<mask id="mask0_141_2" style="mask-type:alpha" maskUnits="userSpaceOnUse" x="89" y="104" width="322" height="292">
<rect x="89" y="104.39" width="80.5" height="291.221" fill="#D9D9D9"/>
<rect x="209.75" y="255.919" width="80.5" height="139.691" fill="#D9D9D9"/>
<rect x="330.5" y="165.949" width="80.5" height="229.662" fill="#D9D9D9"/>
</mask>
<g mask="url(#mask0_141_2)">
<g style="mix-blend-mode:lighten" filter="url(#filter0_d_141_2)">
<rect x="89.5919" y="104.982" width="79.3162" height="290.037" fill="url(#paint0_linear_141_2)" stroke="white" stroke-width="1.18382"/>
<rect x="210.342" y="256.511" width="79.3162" height="138.507" fill="url(#paint1_linear_141_2)" stroke="white" stroke-width="1.18382"/>
<rect x="331.092" y="166.54" width="79.3162" height="228.478" fill="url(#paint2_linear_141_2)" stroke="white" stroke-width="1.18382"/>
</g>
<path d="M49.9339 194.563L471.967 104L471.967 463.5H49.9338L49.9339 194.563Z" fill="url(#paint3_linear_141_2)"/>
<path d="M49.9339 274.563L471.967 184L471.967 417.5H49.9338L49.9339 274.563Z" fill="url(#paint4_linear_141_2)"/>
<path d="M49.9339 368.382L471.967 277.82L471.967 409.5H49.9338L49.9339 368.382Z" fill="url(#paint5_linear_141_2)"/>
</g>
<defs>
<filter id="filter0_d_141_2" x="83.0809" y="98.4706" width="333.838" height="303.059" filterUnits="userSpaceOnUse" color-interpolation-filters="sRGB">
<feFlood flood-opacity="0" result="BackgroundImageFix"/>
<feColorMatrix in="SourceAlpha" type="matrix" values="0 0 0 0 0 0 0 0 0 0 0 0 0 0 0 0 0 0 127 0" result="hardAlpha"/>
<feOffset/>
<feGaussianBlur stdDeviation="2.95956"/>
<feComposite in2="hardAlpha" operator="out"/>
<feColorMatrix type="matrix" values="0 0 0 0 1 0 0 0 0 1 0 0 0 0 1 0 0 0 0.35 0"/>
<feBlend mode="normal" in2="BackgroundImageFix" result="effect1_dropShadow_141_2"/>
<feBlend mode="normal" in="SourceGraphic" in2="effect1_dropShadow_141_2" result="shape"/>
</filter>
<linearGradient id="paint0_linear_141_2" x1="129.25" y1="104.39" x2="129.25" y2="395.61" gradientUnits="userSpaceOnUse">
<stop stop-color="#F1F1F1"/>
<stop offset="1" stop-color="white"/>
</linearGradient>
<linearGradient id="paint1_linear_141_2" x1="250" y1="255.919" x2="250" y2="395.61" gradientUnits="userSpaceOnUse">
<stop stop-color="#F1F1F1"/>
<stop offset="1" stop-color="white"/>
</linearGradient>
<linearGradient id="paint2_linear_141_2" x1="370.75" y1="165.949" x2="370.75" y2="395.61" gradientUnits="userSpaceOnUse">
<stop stop-color="#F1F1F1"/>
<stop offset="1" stop-color="white"/>
</linearGradient>
<linearGradient id="paint3_linear_141_2" x1="591.533" y1="236.18" x2="591.533" y2="131.82" gradientUnits="userSpaceOnUse">
<stop offset="0.59375" stop-color="#E0E0E0"/>
<stop offset="1" stop-color="#AFAFAF"/>
</linearGradient>
<linearGradient id="paint4_linear_141_2" x1="591.533" y1="316.18" x2="591.533" y2="211.82" gradientUnits="userSpaceOnUse">
<stop stop-color="#F3F3F3"/>
<stop offset="0.604167" stop-color="#C7C7C7"/>
</linearGradient>
<linearGradient id="paint5_linear_141_2" x1="591.533" y1="410" x2="591.533" y2="305.64" gradientUnits="userSpaceOnUse">
<stop stop-color="#594AB0"/>
<stop offset="1" stop-color="#51B1DA"/>
</linearGradient>
</defs>
</svg>
