<svg width="1176" height="370" viewBox="0 0 1176 370" fill="none" xmlns="http://www.w3.org/2000/svg">
<g clip-path="url(#clip0_103_352)">
<path d="M78.8454 54.4013L84.393 33.7073H191.328L137.709 232.792H13.836C9.81845 226.447 6.95586 219.441 5.38071 212.098H121.817L164.289 54.4014L78.8454 54.4013ZM184.809 332.293C193.48 332.282 201.907 329.419 208.789 324.147C215.672 318.875 220.628 311.485 222.892 303.119L261.093 161.519C262.483 156.379 265.528 151.84 269.756 148.601C273.984 145.362 279.161 143.603 284.488 143.597H351.489L357.036 122.903H280.254C271.583 122.913 263.156 125.776 256.273 131.048C249.391 136.32 244.435 143.71 242.17 152.076L203.97 293.677C202.579 298.816 199.534 303.356 195.306 306.595C191.078 309.834 185.901 311.592 180.574 311.599H83.519L77.9713 332.293H184.809ZM214.54 140.291L176.34 281.891H91.4828L85.1298 305.59H180.574C184.58 305.585 188.472 304.262 191.651 301.827C194.83 299.392 197.119 295.979 198.165 292.115L236.365 150.514C238.975 140.872 244.686 132.357 252.618 126.281C260.549 120.205 270.261 116.906 280.254 116.894H358.647L365 93.1953H276.019C262.017 93.1953 248.405 97.8095 237.29 106.323C226.176 114.837 218.18 126.776 214.54 140.291V140.291ZM230.132 4H92.3568L86.0039 27.6982H199.172L142.317 238.801H18.1327C24.0808 246.221 31.626 252.205 40.207 256.308C48.788 260.411 58.184 262.527 67.6963 262.5H160.512L230.132 4ZM284.488 149.606C280.483 149.611 276.59 150.933 273.411 153.368C270.232 155.803 267.943 159.216 266.897 163.081L228.697 304.681C226.087 314.323 220.376 322.838 212.445 328.914C204.513 334.991 194.802 338.289 184.809 338.302H76.3604L70.0075 362H189.043C203.046 362 216.658 357.386 227.772 348.872C238.886 340.358 246.882 328.419 250.522 314.904L288.722 173.304H343.525L349.878 149.606L284.488 149.606ZM117.21 206.089L156.445 60.4105H77.2344L70.8816 84.1087H125.484L99.0145 182.391H6.19816V182.391C4.11339 190.107 3.50407 198.147 4.40212 206.089L117.21 206.089Z" fill="#FFF6E6"/>
<path d="M513.306 94.832C513.306 197.044 402.998 214.248 402.998 318.484V362H563.906V311.4H458.658C458.152 308.87 458.152 306.34 458.152 303.81C458.152 245.62 568.966 204.128 568.966 92.808C568.966 36.136 540.63 3.75202 485.982 3.75202C431.334 3.75202 402.998 36.136 402.998 92.808V127.216H455.622V89.266C455.622 63.966 466.754 54.352 484.464 54.352C502.174 54.352 513.306 62.954 513.306 94.832ZM654.725 89.266C654.725 63.966 665.857 54.352 683.567 54.352C701.277 54.352 712.409 63.966 712.409 89.266V280.534C712.409 305.834 701.277 315.448 683.567 315.448C665.857 315.448 654.725 305.834 654.725 280.534V89.266ZM599.065 276.992C599.065 333.664 628.919 366.048 683.567 366.048C738.215 366.048 768.069 333.664 768.069 276.992V92.808C768.069 36.136 738.215 3.75202 683.567 3.75202C628.919 3.75202 599.065 36.136 599.065 92.808V276.992ZM914.548 94.832C914.548 197.044 804.24 214.248 804.24 318.484V362H965.148V311.4H859.9C859.394 308.87 859.394 306.34 859.394 303.81C859.394 245.62 970.208 204.128 970.208 92.808C970.208 36.136 941.872 3.75202 887.224 3.75202C832.576 3.75202 804.24 36.136 804.24 92.808V127.216H856.864V89.266C856.864 63.966 867.996 54.352 885.706 54.352C903.416 54.352 914.548 62.954 914.548 94.832ZM1115.17 94.832C1115.17 197.044 1004.86 214.248 1004.86 318.484V362H1165.77V311.4H1060.52C1060.02 308.87 1060.02 306.34 1060.02 303.81C1060.02 245.62 1170.83 204.128 1170.83 92.808C1170.83 36.136 1142.49 3.75202 1087.85 3.75202C1033.2 3.75202 1004.86 36.136 1004.86 92.808V127.216H1057.49V89.266C1057.49 63.966 1068.62 54.352 1086.33 54.352C1104.04 54.352 1115.17 62.954 1115.17 94.832Z" fill="#FFF6E6"/>
</g>
<defs>
<clipPath id="clip0_103_352">
<rect width="1176" height="370" fill="white"/>
</clipPath>
</defs>
</svg>
