<svg width="749" height="749" viewBox="0 0 749 749" fill="none" xmlns="http://www.w3.org/2000/svg">
<path d="M374.452 374.509L68.0127 197.586V551.432L374.452 728.355V374.509Z" fill="#47CFED"/>
<path d="M374.452 374.509L68.0127 197.586V551.432L374.452 728.355V374.509Z" fill="url(#paint0_linear_96_1362)" fill-opacity="0.2"/>
<path d="M68.0127 197.585L374.452 374.509L680.892 197.585L374.452 20.6621L68.0127 197.585Z" fill="#47CFED"/>
<path d="M68.0127 197.585L374.452 374.509L680.892 197.585L374.452 20.6621L68.0127 197.585Z" fill="url(#paint1_linear_96_1362)" fill-opacity="0.2"/>
<path d="M374.451 728.355L680.891 551.432V197.586L374.451 374.509V728.355Z" fill="#47CFED"/>
<path d="M374.451 728.355L680.891 551.432V197.586L374.451 374.509V728.355Z" fill="url(#paint2_linear_96_1362)" fill-opacity="0.2"/>
<path d="M315.47 282.459C315.47 389.144 200.308 407.101 200.308 515.898V561.319H368.297V508.504H258.417C257.889 505.863 257.889 503.223 257.889 500.582C257.889 439.845 373.58 396.538 373.58 280.346C373.58 221.194 343.997 187.393 286.944 187.393C229.891 187.393 200.308 221.194 200.308 280.346V316.26H255.248V276.649C255.248 250.242 266.87 240.207 285.359 240.207C303.848 240.207 315.47 249.185 315.47 282.459Z" fill="#FFF6E6"/>
<path d="M445.681 279.29H490.583V561.319H548.693V191.618H509.601C500.621 216.44 490.583 238.094 445.681 238.094V279.29Z" fill="#FFF6E6"/>
<path d="M195.308 561.319V566.319H200.308H368.297H373.297V561.319V508.504V503.504H368.297H262.918C262.891 502.596 262.889 501.632 262.889 500.582C262.889 487.03 269.335 474.017 279.961 459.892C287.18 450.297 295.943 440.656 305.404 430.245C309.969 425.222 314.696 420.02 319.492 414.558C348.625 381.375 378.58 340.323 378.58 280.346C378.58 249.999 370.992 225.376 355.342 208.308C339.627 191.168 316.471 182.393 286.944 182.393C257.417 182.393 234.261 191.168 218.545 208.308C202.896 225.376 195.308 249.999 195.308 280.346V316.26V321.26H200.308H255.248H260.248V316.26V276.649C260.248 264.066 263.031 256.386 267.09 251.866C271.052 247.453 277 245.207 285.359 245.207C293.827 245.207 299.584 247.241 303.472 252.013C307.588 257.066 310.47 266.193 310.47 282.459C310.47 333.593 283.134 363.43 254.291 394.912L254.202 395.008C225.455 426.386 195.308 459.37 195.308 515.898V561.319ZM440.681 279.29V284.29H445.681H485.583V561.319V566.319H490.583H548.693H553.693V561.319V191.618V186.618H548.693H509.601H506.093L504.899 189.917C500.394 202.371 495.971 212.89 487.724 220.487C479.677 227.9 467.308 233.094 445.681 233.094H440.681V238.094V279.29Z" stroke="#123036" stroke-opacity="0.5" stroke-width="10"/>
<defs>
<linearGradient id="paint0_linear_96_1362" x1="221.232" y1="197.586" x2="221.232" y2="728.355" gradientUnits="userSpaceOnUse">
<stop stop-color="#167387"/>
<stop offset="0.479167" stop-color="#47CFED"/>
<stop offset="1" stop-color="#BFF3FF"/>
</linearGradient>
<linearGradient id="paint1_linear_96_1362" x1="374.452" y1="20.6621" x2="374.452" y2="374.509" gradientUnits="userSpaceOnUse">
<stop stop-color="#167387"/>
<stop offset="0.479167" stop-color="#47CFED"/>
<stop offset="1" stop-color="#BFF3FF"/>
</linearGradient>
<linearGradient id="paint2_linear_96_1362" x1="527.671" y1="197.586" x2="527.671" y2="728.355" gradientUnits="userSpaceOnUse">
<stop stop-color="#167387"/>
<stop offset="0.479167" stop-color="#47CFED"/>
<stop offset="1" stop-color="#BFF3FF"/>
</linearGradient>
</defs>
</svg>
