<svg xmlns="http://www.w3.org/2000/svg" width="1633.85863" height="740" xmlns:xlink="http://www.w3.org/1999/xlink" viewBox="0 0 1633.85863 740">
  <defs>
    <radialGradient id="uuid-596fbfe6-8b8b-4dd5-9b34-81e8d5387d86" cx="823.85852" cy="370" fx="823.85852" fy="733.6253" r="363.62816" gradientTransform="matrix(1, 0, 0, 1, 0, 0)" gradientUnits="userSpaceOnUse">
      <stop offset="0" stop-color="#101033"/>
      <stop offset="1" stop-color="#3a2966"/>
    </radialGradient>
    <linearGradient id="uuid-f6247045-6aac-4413-8f50-18bbe371de0d" x1="4739.64387" y1="232.53765" x2="5056.01064" y2="232.53765" gradientTransform="translate(2834.11377 4682.24804) rotate(-120)" gradientUnits="userSpaceOnUse">
      <stop offset=".01458" stop-color="#1e1b4a"/>
      <stop offset="1" stop-color="#1e1b4a" stop-opacity="0"/>
    </linearGradient>
    <linearGradient id="uuid-21a3b378-9855-4ea6-b791-6db5b19b9a7a" x1="2742.6138" y1="3601.11101" x2="3058.98057" y2="3601.11101" gradientTransform="translate(5472.00263 -113.2905) rotate(120)" xlink:href="#uuid-f6247045-6aac-4413-8f50-18bbe371de0d"/>
    <linearGradient id="uuid-aefeb41b-f306-416d-8810-57abd43fd12b" x1="823.85873" y1="187.34556" x2="1140.22549" y2="187.34556" gradientTransform="matrix(1, 0, 0, 1, 0, 0)" xlink:href="#uuid-f6247045-6aac-4413-8f50-18bbe371de0d"/>
    <radialGradient id="uuid-e3fecc82-d6d8-498b-8be8-fbe2f2416b63" cx="6927.04678" cy="-1234.82795" fx="6927.04678" fy="-1234.82795" r="368.35946" gradientTransform="translate(-6102.81684 1964.37052)" gradientUnits="userSpaceOnUse">
      <stop offset="0" stop-color="#2496ff"/>
      <stop offset=".00126" stop-color="#2495fe" stop-opacity=".99711"/>
      <stop offset=".09576" stop-color="#3c89f9" stop-opacity=".79584"/>
      <stop offset=".18826" stop-color="#507ff5" stop-opacity=".62875"/>
      <stop offset=".27679" stop-color="#5f78f1" stop-opacity=".49877"/>
      <stop offset=".36034" stop-color="#6a72ef" stop-opacity=".40571"/>
      <stop offset=".4369" stop-color="#716fed" stop-opacity=".34947"/>
      <stop offset=".5" stop-color="#746eed" stop-opacity=".33"/>
      <stop offset="1" stop-color="#a332bf" stop-opacity="0"/>
    </radialGradient>
    <radialGradient id="uuid-6765d079-84fb-4b9f-8d23-ff9e244ccfaf" cx="6359.36793" cy="-1773.3882" fx="6359.36793" fy="-1773.3882" r="358.79907" gradientTransform="translate(7497.61398 1964.37052) rotate(-180) scale(1 -1)" gradientUnits="userSpaceOnUse">
      <stop offset="0" stop-color="#00d2f1"/>
      <stop offset=".5" stop-color="#00b7ff" stop-opacity=".33"/>
      <stop offset="1" stop-color="#2496ff" stop-opacity="0"/>
    </radialGradient>
    <radialGradient id="uuid-498f4715-af46-4bbf-a62f-0b5b937e0feb" cx="6617.01098" cy="-1771.5515" fx="6617.01098" fy="-1771.5515" r="345.55842" gradientTransform="translate(-6102.81684 1964.37052)" gradientUnits="userSpaceOnUse">
      <stop offset="0" stop-color="#a332bf"/>
      <stop offset=".5" stop-color="#746eed" stop-opacity=".33"/>
      <stop offset="1" stop-color="#2496ff" stop-opacity="0"/>
    </radialGradient>
    <linearGradient id="uuid-bed510bf-a679-47e9-a5aa-dceafea01163" x1="665.67517" y1="461.32711" x2="965.69661" y2="288.10966" gradientTransform="matrix(1, 0, 0, 1, 0, 0)" gradientUnits="userSpaceOnUse">
      <stop offset="0" stop-color="#f7b457"/>
      <stop offset=".2" stop-color="#ed4a4f"/>
      <stop offset=".4" stop-color="#bf4c9c"/>
      <stop offset=".6" stop-color="#7552cc"/>
      <stop offset=".8" stop-color="#2f74ed"/>
      <stop offset="1" stop-color="#1595e7"/>
    </linearGradient>
    <linearGradient id="uuid-a845bc6d-688c-485c-b870-655989d17d88" x1="639.31086" y1="385.22139" x2="1000.6222" y2="176.61819" xlink:href="#uuid-bed510bf-a679-47e9-a5aa-dceafea01163"/>
    <linearGradient id="uuid-593c4ec7-5855-4174-b3db-d310f80fc7a3" x1="677.61098" y1="545.76317" x2="1015.76514" y2="350.52977" xlink:href="#uuid-bed510bf-a679-47e9-a5aa-dceafea01163"/>
    <linearGradient id="uuid-f679df98-b7ba-4036-84d0-90743ee95650" x1="593.25091" y1="322.94398" x2="1001.56833" y2="432.3523" gradientTransform="matrix(1, 0, 0, 1, 0, 0)" gradientUnits="userSpaceOnUse">
      <stop offset="0" stop-color="#544d40"/>
      <stop offset=".16667" stop-color="#aca495"/>
      <stop offset=".33333" stop-color="#dbd2c3"/>
      <stop offset=".5" stop-color="#e9e0d1"/>
      <stop offset=".66667" stop-color="#dbd2c3"/>
      <stop offset=".83333" stop-color="#aca495"/>
      <stop offset="1" stop-color="#544d40"/>
    </linearGradient>
  </defs>
  <!-- <rect x="13.85863" width="1620" height="740" fill="#131a3f"/> -->
  <g id="uuid-fa12d27e-48e1-496f-8125-7fab1f2af90b" data-name="CUBE">
    <polygon id="uuid-417ef69c-45e4-4719-910b-ef9239ddb514" data-name="BG Shape" points="1140.22549 552.65444 1140.22549 187.34556 823.85873 4.69113 507.49196 187.34556 507.49196 552.65444 823.85873 735.30887 1140.22549 552.65444" fill="#040823"/>
    <polygon id="uuid-33dc7d16-8c7c-404c-87a9-cc767c8a791e" data-name="Radial BG" points="1140.22532 552.65451 1140.22532 187.34554 823.85873 4.69112 507.49172 187.34554 507.49172 552.65451 823.85873 735.30888 1140.22532 552.65451" fill="url(#uuid-596fbfe6-8b8b-4dd5-9b34-81e8d5387d86)"/>
    <g id="uuid-86a2bd48-5962-4341-ba48-8c9c0c87a30a" data-name="Cube Reshade" opacity=".5">
      <polygon id="uuid-ddda30df-6684-4224-b089-dbd38db22769" data-name="Cube Reshade Left" points="507.49196 552.65444 823.85873 370 507.49196 187.34556 507.49196 552.65444" fill="url(#uuid-f6247045-6aac-4413-8f50-18bbe371de0d)"/>
      <polygon id="uuid-93ed8dfa-0059-46d3-96ea-40c45e3dc93a" data-name="Cube Reshade Right" points="1140.2255 552.65444 823.85873 370 823.85873 735.30887 1140.2255 552.65444" fill="url(#uuid-21a3b378-9855-4ea6-b791-6db5b19b9a7a)"/>
      <polygon id="uuid-281d9411-5543-4f47-a6d0-30424d56941c" data-name="Cube Reshade Top" points="823.85873 4.69112 823.85873 370 1140.22549 187.34556 823.85873 4.69112" fill="url(#uuid-aefeb41b-f306-416d-8810-57abd43fd12b)"/>
    </g>
    <polygon id="uuid-dc5375d5-3a63-4b4f-93fb-ac79e5c77b2c" data-name="Cube Face Left" points="823.85873 735.30887 823.85873 370 507.49196 187.34556 507.49196 552.65444 823.85873 735.30887" fill="url(#uuid-e3fecc82-d6d8-498b-8be8-fbe2f2416b63)"/>
    <polygon id="uuid-c1f04f35-2d2a-408b-890c-f5294c51abba" data-name="Cube Face Right" points="823.85873 735.30887 823.85873 370 1140.22549 187.34556 1140.22549 552.65444 823.85873 735.30887" fill="url(#uuid-6765d079-84fb-4b9f-8d23-ff9e244ccfaf)"/>
    <polygon id="uuid-5e02415c-4548-4e2b-90b5-6897ab3c6d96" data-name="Cube Face Top" points="823.85873 4.69113 507.49196 187.34556 823.85873 370 1140.22549 187.34556 823.85873 4.69113" fill="url(#uuid-498f4715-af46-4bbf-a62f-0b5b937e0feb)"/>
    <g id="uuid-c5d3d958-eeef-4988-9d1b-20b0a4036a38" data-name="Inner Cube">
      <polygon points="823.85863 369.99995 665.67518 278.67268 665.67518 461.32712 823.85863 552.65428 823.85863 369.99995" fill="url(#uuid-bed510bf-a679-47e9-a5aa-dceafea01163)"/>
      <polygon points="665.67518 278.67268 823.85863 369.99995 982.04188 278.67268 823.85863 187.34551 665.67518 278.67268" fill="url(#uuid-a845bc6d-688c-485c-b870-655989d17d88)"/>
      <polygon points="823.85863 552.65428 982.04188 461.32712 982.04188 278.67268 823.85863 369.99995 823.85863 552.65428" fill="url(#uuid-593c4ec7-5855-4174-b3db-d310f80fc7a3)"/>
    </g>
  </g>
  <g id="uuid-61a40963-34d2-4f0f-b75c-1a36d27d4945" data-name="Text Frames">
    <g id="uuid-6fbb4922-4b97-4294-88e4-9891e1819742" data-name="Frame Right">
      <polygon points="1625.78466 252.58957 1061.63611 252.58957 1059.03226 262.26176 1625.78466 262.26176 1625.78466 252.58957" fill="#00d2f1"/>
      <polygon points="1625.78466 347.65127 1036.18053 347.65127 1033.57668 357.32346 1625.78466 357.32346 1625.78466 347.65127" fill="#00d2f1"/>
    </g>
    <g id="uuid-c21fdc8b-234b-4452-9704-d1f5c916396d" data-name="Frame Left">
      <polygon points="21.93282 262.26157 718.95156 262.26157 721.55541 252.58938 21.93282 252.58939 21.93282 262.26157" fill="#00d2f1"/>
      <polygon points="21.93282 357.32346 693.43812 357.32346 696.04197 347.65127 21.93282 347.65127 21.93282 357.32346" fill="#00d2f1"/>
    </g>
  </g>
  <g id="uuid-ceaa2bf0-13fd-447c-b1b1-fc1312862f42" data-name="TEXT">
    <g id="uuid-780de723-b48a-47a2-9d33-9898fe522ea3" data-name="Y2021">
      <g>
        <path d="M1519.73079,286.3766c-2.51953,0-4.10352,1.36816-4.10352,4.96826v5.40039h-7.48926v-4.896c0-8.06494,4.03223-12.67334,11.80957-12.67334,7.77637,0,11.80859,4.6084,11.80859,12.67334,0,15.84131-15.76953,21.74561-15.76953,30.02637,0,.35986,0,.72021,.07227,1.08008h14.97754v7.20068h-22.89844v-6.19238c0-14.8335,15.69727-17.28174,15.69727-31.82715,0-4.53613-1.58398-5.76025-4.10449-5.76025Z" fill="#ded5c6"/>
        <path d="M1540.32161,291.84925c0-8.06494,4.24805-12.67334,12.02539-12.67334,7.77637,0,12.02441,4.6084,12.02441,12.67334v26.20996c0,8.06494-4.24805,12.67334-12.02441,12.67334-7.77734,0-12.02539-4.6084-12.02539-12.67334v-26.20996Zm7.9209,26.71436c0,3.6001,1.58398,4.96826,4.10449,4.96826,2.51953,0,4.10449-1.36816,4.10449-4.96826v-27.21875c0-3.6001-1.58496-4.96826-4.10449-4.96826-2.52051,0-4.10449,1.36816-4.10449,4.96826v27.21875Z" fill="#ded5c6"/>
        <path d="M1585.39485,286.3766c-2.52051,0-4.10449,1.36816-4.10449,4.96826v5.40039h-7.48828v-4.896c0-8.06494,4.03223-12.67334,11.80859-12.67334s11.80957,4.6084,11.80957,12.67334c0,15.84131-15.76953,21.74561-15.76953,30.02637,0,.35986,0,.72021,.07129,1.08008h14.97754v7.20068h-22.89746v-6.19238c0-14.8335,15.69727-17.28174,15.69727-31.82715,0-4.53613-1.58398-5.76025-4.10449-5.76025Z" fill="#ded5c6"/>
        <path d="M1605.05012,286.08851c6.12012,0,7.48828-2.95215,8.71191-6.33643h5.3291v50.4043h-7.9209v-38.45117h-6.12012v-5.6167Z" fill="#ded5c6"/>
      </g>
    </g>
    <g id="uuid-05542d70-8286-48bb-a35a-e50cf8ccae93" data-name="State Of">
      <g>
        <path d="M35.47005,279.17591c7.70459,0,11.66504,4.6084,11.66504,12.67334v1.58398h-7.48877v-2.08838c0-3.6001-1.43994-4.96826-3.95996-4.96826-2.52051,0-3.96045,1.36816-3.96045,4.96826,0,10.36914,15.48145,12.31299,15.48145,26.71436,0,8.06494-4.03271,12.67334-11.80908,12.67334-7.77686,0-11.80908-4.6084-11.80908-12.67334v-3.09619h7.48877v3.60059c0,3.6001,1.58398,4.896,4.104,4.896,2.52051,0,4.10449-1.2959,4.10449-4.896,0-10.36914-15.48145-12.31348-15.48145-26.71436,0-8.06494,3.96045-12.67334,11.66504-12.67334Z" fill="#ded5c6"/>
        <path d="M53.75667,279.75209h24.48193v7.20068h-8.28076v43.20361h-7.92041v-43.20361h-8.28076v-7.20068Z" fill="#ded5c6"/>
        <path d="M108.91096,330.15638h-7.99268l-1.36816-9.14502h-9.72119l-1.36768,9.14502h-7.27295l8.06494-50.4043h11.59277l8.06494,50.4043Zm-18.07373-15.98535h7.63281l-3.81641-25.49023-3.81641,25.49023Z" fill="#ded5c6"/>
        <path d="M114.59602,279.75209h24.48193v7.20068h-8.28076v43.20361h-7.92041v-43.20361h-8.28076v-7.20068Z" fill="#ded5c6"/>
        <path d="M154.77131,300.99379h10.87305v7.20068h-10.87305v14.76123h13.68115v7.20068h-21.60156v-50.4043h21.60156v7.20068h-13.68115v14.04102Z" fill="#ded5c6"/>
        <path d="M192.49837,291.84925c0-8.06494,4.24805-12.67334,12.0249-12.67334,7.77637,0,12.0249,4.6084,12.0249,12.67334v26.20996c0,8.06494-4.24854,12.67334-12.0249,12.67334-7.77686,0-12.0249-4.6084-12.0249-12.67334v-26.20996Zm7.92041,26.71436c0,3.6001,1.58398,4.96826,4.10449,4.96826,2.52002,0,4.10449-1.36816,4.10449-4.96826v-27.21875c0-3.6001-1.58447-4.96826-4.10449-4.96826-2.52051,0-4.10449,1.36816-4.10449,4.96826v27.21875Z" fill="#ded5c6"/>
        <path d="M233.89876,302.14613h10.2251v7.20068h-10.2251v20.80957h-7.92041v-50.4043h20.95361v7.20068h-13.0332v15.19336Z" fill="#ded5c6"/>
      </g>
    </g>
  </g>
  <path id="uuid-f5b7c343-3e08-4b04-8cb1-44fc5aec9a04" data-name="JS Logo" d="M675.79063,201.86995l7.2496-27.05542h139.74135l-70.06799,260.28405h-161.87675c-5.19669-8.226-8.98171-17.37243-11.04936-27.05542h152.15851l55.5019-206.17321h-111.65726Zm138.47196,363.31551c23.25626,0,43.72129-15.68479,49.76744-38.14218l49.91993-185.12746c3.71333-13.79648,16.28561-23.43176,30.57311-23.43176h87.55604l7.24954-27.05542h-100.33865c-23.25674,0-43.72177,15.68431-49.76744,38.1417l-49.92041,185.12842c-3.71381,13.796-16.28561,23.43128-30.57263,23.43128h-126.83148l-7.2496,27.05542h139.61416Zm38.85354-251.02323l-49.92017,185.12842h-110.89088l-8.302,30.98309h124.72643c10.74199,0,20.1941-7.24444,22.98677-17.61674l49.92041-185.1289c6.96681-25.88062,30.55105-43.95577,57.35329-43.95577h102.44376l8.30195-30.98309h-116.2792c-37.62095,0-70.56093,25.24527-80.34036,61.57298Zm20.37523-178.1871h-180.04408l-8.302,30.98309h147.88727l-74.29823,275.99665h-162.28265c15.06598,18.69851,38.15417,30.98309,64.7694,30.98309h121.29146l90.97884-337.96283Zm76.56513,221.34831h71.61555l8.302-30.98309h-85.45099c-10.74199,0-20.19506,7.24444-22.98725,17.61722l-49.91993,185.12794c-6.96729,25.8811-30.55201,43.95625-57.35329,43.95625h-141.71933l-8.30189,30.98309h155.55464c37.62089,0,70.56087-25.24527,80.34019-61.57298l49.92029-185.12842h0Zm-224.13124,42.86341l51.27166-190.46061h-103.51145l-8.30189,30.98309h71.35428l-34.59033,128.49419h-121.29182v.00024c-2.81317,10.49888-3.4888,20.95868-2.34708,30.98309h147.41663Z" fill="url(#uuid-f679df98-b7ba-4036-84d0-90743ee95650)"/>
</svg>