<svg fill="none" height="512" viewBox="0 0 512 512" width="512" xmlns="http://www.w3.org/2000/svg" xmlns:xlink="http://www.w3.org/1999/xlink"><filter id="a" color-interpolation-filters="sRGB" filterUnits="userSpaceOnUse" height="280.561" width="266.133" x="118" y="124"><feFlood flood-opacity="0" result="BackgroundImageFix"/><feColorMatrix in="SourceAlpha" result="hardAlpha" type="matrix" values="0 0 0 0 0 0 0 0 0 0 0 0 0 0 0 0 0 0 127 0"/><feOffset dy="10"/><feGaussianBlur stdDeviation="15"/><feComposite in2="hardAlpha" operator="out"/><feColorMatrix type="matrix" values="0 0 0 0 0.775 0 0 0 0 0.0710416 0 0 0 0 0.4376 0 0 0 1 0"/><feBlend in2="BackgroundImageFix" mode="normal" result="effect1_dropShadow_612_13"/><feBlend in="SourceGraphic" in2="effect1_dropShadow_612_13" mode="normal" result="shape"/></filter><linearGradient id="b"><stop offset="0" stop-color="#ede1a4"/><stop offset=".3333" stop-color="#ea1c78"/><stop offset=".6667" stop-color="#9f0d63"/><stop offset="1" stop-color="#41092e"/></linearGradient><linearGradient id="c" gradientUnits="userSpaceOnUse" x1="3.41007" x2="508.779" xlink:href="#b" y1="256.14" y2="256.14"/><linearGradient id="d" gradientUnits="userSpaceOnUse" x1="3.41004" x2="665.295" xlink:href="#b" y1="256.251" y2="256.251"/><linearGradient id="e" gradientUnits="userSpaceOnUse" x1="3.2928" x2="1014.48" xlink:href="#b" y1="256.225" y2="256.225"/><mask id="f" height="377" maskUnits="userSpaceOnUse" width="506" x="3" y="68"><path d="m256.094 68.3516-252.68384 189.6804 252.68384 186.211 252.685-187.472z" fill="#c4c4c4"/></mask><mask id="g" height="251" maskUnits="userSpaceOnUse" width="506" x="3" y="131"><path d="m256.094 131.157-252.68384 126.695 252.68384 123.822 252.685-124.943z" fill="#c4c4c4"/></mask><path d="m256.094 5.5459-252.68384 252.4861 252.68384 248.703 252.685-249.964z" fill="url(#c)"/><g mask="url(#f)"><path d="m3.41016 5.54492h661.88484v501.41308h-661.88484z" fill="url(#d)"/></g><g mask="url(#g)"><path d="m3.29297 5.51855h1011.18703v501.41245h-1011.18703z" fill="url(#e)"/></g><g filter="url(#a)"><path d="m217.834 202.532c0 60.076-64.834 70.187-64.834 131.452v25.577h94.574v-29.74h-61.86c-.297-1.487-.297-2.974-.297-4.461 0-34.202 65.131-58.589 65.131-124.017 0-33.309-16.654-52.343-48.774-52.343-32.119 0-48.774 19.034-48.774 52.343v20.223h30.93v-22.305c0-14.87 6.543-20.521 16.952-20.521s16.952 5.056 16.952 23.792z" fill="#fff6e6"/><path d="m291.139 200.748h25.279v158.813h32.714v-208.182h-22.007c-5.056 13.978-10.707 26.172-35.986 26.172z" fill="#fff6e6"/><path d="m150.5 359.561v2.5h2.5 94.574 2.5v-2.5-29.74-2.5h-2.5-59.63c-.025-.609-.027-1.255-.027-1.961 0-7.735 3.678-15.131 9.675-23.103 4.072-5.415 9.022-10.862 14.355-16.732 2.567-2.825 5.224-5.749 7.914-8.814 16.389-18.671 33.187-41.714 33.187-75.368 0-17.04-4.26-30.818-12.999-40.352-8.773-9.57-21.715-14.491-38.275-14.491s-29.502 4.921-38.275 14.491c-8.739 9.534-12.999 23.312-12.999 40.352v20.223 2.5h2.5 30.93 2.5v-2.5-22.305c0-7.125 1.574-11.54 3.933-14.167 2.309-2.572 5.757-3.854 10.519-3.854 4.816 0 8.168 1.159 10.441 3.949 2.386 2.93 4.011 8.161 4.011 17.343 0 28.918-15.464 45.8-31.688 63.513l-.073.079c-16.187 17.672-33.073 36.163-33.073 67.86zm138.139-158.813v2.5h2.5 22.779v156.313 2.5h2.5 32.714 2.5v-2.5-208.182-2.5h-2.5-22.007-1.755l-.596 1.65c-2.536 7.01-5.047 13.003-9.753 17.339-4.605 4.244-11.655 7.183-23.882 7.183h-2.5v2.5z" stroke="#fff6e6" stroke-width="5"/></g></svg>