<?xml version="1.0" encoding="utf-8"?>
<!-- Generator: Adobe Illustrator 24.3.0, SVG Export Plug-In . SVG Version: 6.00 Build 0)  -->
<svg version="1.1" id="Layer_1" xmlns="http://www.w3.org/2000/svg" xmlns:xlink="http://www.w3.org/1999/xlink" x="0px" y="0px"
	 viewBox="0 0 792 612" enable-background="new 0 0 792 612" xml:space="preserve">
<g>
	<path fill="#0F638B" d="M100,241.4h21c1.7,0,3,1.3,3,3v113.9c0,1.7-1.3,3-3,3h-21c-1.7,0-3-1.3-3-3V244.4
		C97,242.7,98.3,241.4,100,241.4z"/>
	<path fill="#0F638B" d="M228.3,237v121.5c0,1.5-1.2,2.8-2.8,2.8h-20.6c-1.5,0-2.8-1.2-2.8-2.8v-3.2c0-2.4-2.9-3.7-4.7-2
		c-2.3,2.2-4.8,4-7.7,5.4c-4.9,2.5-10.5,3.7-16.8,3.7c-8.7,0-16.3-2-22.9-5.9c-6.6-3.9-11.6-9.5-15.2-16.7
		c-3.6-7.2-5.4-15.5-5.4-24.8c0-9.2,1.8-17.4,5.3-24.5s8.6-12.6,15.1-16.4c6.5-3.9,14-5.8,22.4-5.8c10.3,0,18.7,3.1,25.1,9.1
		c1.8,1.7,4.7,0.4,4.7-2V237c0-1.5,1.2-2.8,2.8-2.8h20.6C227.1,234.2,228.3,235.4,228.3,237z M195.7,334c4.3-4.7,6.4-10.9,6.4-18.4
		s-2.1-13.7-6.4-18.4c-4.3-4.7-9.8-7.1-16.5-7.1c-6.9,0-12.4,2.4-16.7,7.1s-6.5,10.9-6.6,18.4c0.1,7.5,2.3,13.7,6.6,18.4
		c4.3,4.7,9.8,7.1,16.7,7.1C185.9,341.1,191.4,338.7,195.7,334z"/>
	<path fill="#0F638B" d="M315.1,281.1c7.7,8.6,11.6,20.5,11.6,35.8c0,1.5,0,2.7,0,3.8c0,1.4-1.2,2.5-2.6,2.5H264
		c-1.8,0-3.1,1.8-2.5,3.5c1.6,4.2,4.1,7.6,7.5,10.1c4.2,3.3,9.3,4.9,15.2,4.9c4.3,0,8.5-0.8,12.5-2.5c3.3-1.4,6.3-3.2,9-5.6
		c1-0.9,2.6-0.8,3.5,0.1l10.3,10.5c1,1,1,2.7,0,3.7c-4.3,4.3-9.4,7.7-15.2,10.2c-6.7,2.8-14.1,4.2-22.4,4.2
		c-9.7,0-18.2-1.9-25.4-5.8c-7.3-3.9-12.8-9.4-16.8-16.4c-3.9-7.1-5.9-15.2-5.9-24.5c0-9.4,2-17.6,6-24.8c4-7.1,9.6-12.7,16.8-16.6
		c7.2-3.9,15.4-5.9,24.7-5.9C296.1,268.3,307.3,272.6,315.1,281.1z M298.9,307.7c1.6,0,2.8-1.4,2.6-2.9c-0.7-4.7-2.5-8.6-5.6-11.6
		c-3.7-3.7-8.5-5.5-14.6-5.5c-5.7,0-10.5,1.8-14.3,5.4c-3.1,2.9-5.3,6.7-6.6,11.4c-0.4,1.6,0.8,3.2,2.5,3.2H298.9z"/>
	<path fill="#0F638B" d="M371.7,272.7c4.5-2.6,9.7-4.1,15.6-4.5c1.3-0.1,2.4,0.9,2.4,2.2v20.3c0,1.2-1,2.2-2.2,2.2
		c-0.6,0-1.2,0-1.9,0c-8.1,0-14.5,2.2-19.3,6.6c-4.7,4.4-7.1,10.2-7.1,17.6v42.2c0,1.2-1,2.2-2.2,2.2h-22c-1.2,0-2.2-1-2.2-2.2
		v-87.8c0-1.2,1-2.2,2.2-2.2h22c1.2,0,2.2,1,2.2,2.2v7.4c0,2,2.5,3,3.8,1.4C365.5,277.1,368.4,274.6,371.7,272.7z"/>
	<path fill="#0F638B" d="M448,359.1v-3.2c0-1.9-2.2-2.9-3.6-1.6c-2.4,2.1-5.2,3.8-8.3,5.1c-4.9,2.1-10.6,3.1-17,3.1
		c-9.7,0-17.4-2.7-23.1-8s-8.6-12.2-8.6-20.8c0-8.7,3.1-15.4,9.2-20.3s14.8-7.3,26-7.5h25.3v-1.7c0-4.9-1.6-8.7-4.9-11.4
		c-3.3-2.7-8-4-14.3-4c-8,0-16.4,2.3-25.3,6.9c-1.1,0.6-2.5,0.1-3-1l-6.4-14.1c-0.5-1.1,0-2.4,1-2.9c6.6-3.2,12.8-5.5,18.6-7.1
		c6.4-1.7,13.4-2.6,21.1-2.6c12.3,0,21.9,2.9,28.7,8.7s10.2,13.9,10.4,24.3l0.2,57.9c0,1.2-1,2.2-2.2,2.2h-21.5
		C449,361.3,448,360.3,448,359.1z M440.6,339.7c3.9-2.6,6.3-5.8,7.1-9.7c0-0.2,0.1-0.4,0.1-0.5v-5.8c0-1.2-1-2.2-2.2-2.2h-18.5
		c-5.1,0-8.9,0.8-11.4,2.5s-3.7,4.3-3.7,8c0,3.5,1.3,6.4,3.9,8.5s6.1,3.2,10.5,3.2C431.9,343.7,436.6,342.3,440.6,339.7z"/>
	<path fill="#0F638B" d="M489.5,362.7c-2.2,0-4.2-0.7-5.8-2.1c-1.6-1.4-2.5-3.3-2.5-5.8c0-2.1,0.7-3.8,2.2-5.2
		c1.5-1.5,3.7-2.4,5.8-2.4c1.6,0,3.1,0.4,4.5,1.3c1.3,0.9,2.4,2.2,3.1,3.9c0.7,1.7,1.1,3.8,1.1,6.4c0,3.4-0.7,6.5-2.1,9.5
		c-1.4,2.9-3.2,5.3-5.2,7c-2.1,1.7-3.9,2.6-5.6,2.6c-1.1,0-1.9-0.4-2.6-1c-0.7-0.7-1-1.5-1-2.4c0-1.4,0.7-2.5,2.1-3.4
		C487.5,368.8,489.5,366,489.5,362.7z"/>
	<path fill="#0F638B" d="M525.1,269.8h3.2c1.6,0,2.9,1.3,2.9,2.9v85.6c0,1.6-1.3,2.9-2.9,2.9h-3.2c-1.6,0-2.9-1.3-2.9-2.9v-85.6
		C522.1,271.1,523.4,269.8,525.1,269.8z"/>
	<path fill="#0F638B" d="M598.5,299.6c4.7,4.8,7,11.3,7,19.6V359c0,1.3-1,2.3-2.3,2.3h-4.3c-1.3,0-2.3-1-2.3-2.3v-37.7
		c0-6.5-1.8-11.5-5.4-15.2c-3.6-3.7-8.6-5.5-14.9-5.5c-7.1,0.1-12.7,2.3-16.9,6.5c-4.2,4.3-6.6,10-7.3,17.2c0,0.1,0,0.2,0,0.2V359
		c0,1.3-1,2.3-2.3,2.3h-4.2c-1.3,0-2.3-1-2.3-2.3v-64c0-1.3,1-2.3,2.3-2.3h4.2c1.3,0,2.3,1,2.3,2.3v5.6c0,2.1,2.7,3.1,4,1.5
		c1.8-2.2,3.9-4,6.4-5.4c4.6-2.7,10.1-4.1,16.7-4.2C587.4,292.5,593.8,294.8,598.5,299.6z"/>
	<path fill="#0F638B" d="M646.3,300.2c-4.9,0-9.3,1.1-13.2,3.4s-7,5.4-9.2,9.5s-3.3,8.7-3.3,13.9c0,5.2,1.1,9.9,3.3,14
		s5.2,7.3,9.2,9.6c3.9,2.3,8.3,3.4,13.2,3.4c4.4,0,8.5-0.8,12.2-2.4c3.1-1.3,5.7-3.1,8-5.3c0.8-0.8,2-0.7,2.8,0.1l2.3,2.4
		c0.7,0.8,0.7,2,0,2.8c-2.8,3-6.2,5.3-10.2,7.1c-4.6,2-9.8,3-15.4,3c-6.5,0-12.4-1.5-17.5-4.4s-9.2-7-12.1-12.3
		c-2.9-5.3-4.4-11.2-4.4-17.9c0-6.6,1.5-12.6,4.4-17.9s7-9.4,12.1-12.3s11-4.4,17.5-4.4c5.3,0,10.2,0.9,14.6,2.6
		c3.8,1.5,7.1,3.5,10,6c0.8,0.7,0.8,1.9,0.2,2.7l-2.4,2.9c-0.7,0.8-1.9,1-2.7,0.3C660.1,302.5,653.8,300.2,646.3,300.2z"/>
	<path fill="#0F638B" d="M687.2,362.6c-2,0-3.8-0.7-5.3-2c-1.5-1.4-2.3-3.3-2.3-5.7c0-2.1,0.7-3.9,2.2-5.4s3.3-2.2,5.4-2.2
		c2.1,0,4,0.7,5.5,2.2s2.4,3.7,2.3,5.8c-0.1,3-1.4,5.1-3.9,6.4C689.9,362.3,688.6,362.6,687.2,362.6z"/>
</g>
<g>
	<path fill="#0F638B" d="M98.4,422.3v-23.4h10.3c4.9,0,7.6,3.3,7.6,7.3c0,4-2.7,7.3-7.6,7.3h-6.2v8.8H98.4z M112.1,406.2
		c0-2.2-1.7-3.7-4-3.7h-5.7v7.4h5.7C110.5,409.9,112.1,408.4,112.1,406.2z"/>
	<path fill="#0F638B" d="M128.5,422.3v-1.9c-1.3,1.5-3.3,2.3-5.5,2.3c-2.7,0-5.9-1.9-5.9-5.6c0-3.9,3.1-5.5,5.9-5.5
		c2.3,0,4.2,0.7,5.5,2.2v-2.5c0-2-1.7-3.2-4-3.2c-1.9,0-3.6,0.7-5,2.2l-1.5-2.6c2-1.9,4.4-2.7,7.1-2.7c3.8,0,7.1,1.6,7.1,6.1v11.3
		H128.5z M128.5,418.4v-2.6c-0.9-1.2-2.5-1.8-4-1.8c-2.1,0-3.7,1.2-3.7,3.1c0,1.9,1.6,3.1,3.7,3.1
		C126,420.2,127.6,419.6,128.5,418.4z"/>
	<path fill="#0F638B" d="M136.1,422.3v-17h3.7v2.5c1.3-1.6,3.3-2.9,5.5-2.9v3.7c-0.3-0.1-0.7-0.1-1.1-0.1c-1.6,0-3.7,1.1-4.4,2.3
		v11.6H136.1z"/>
	<path fill="#0F638B" d="M146.4,413.8c0-4.9,3.6-8.9,8.6-8.9c5.1,0,8.3,3.9,8.3,9.2v0.9h-13.1c0.3,2.5,2.2,4.7,5.4,4.7
		c1.7,0,3.6-0.7,4.8-1.9l1.7,2.4c-1.7,1.6-4.2,2.5-6.9,2.5C150.1,422.7,146.4,419.1,146.4,413.8z M154.9,407.9
		c-3.1,0-4.6,2.4-4.7,4.5h9.6C159.6,410.4,158.3,407.9,154.9,407.9z"/>
	<path fill="#0F638B" d="M177.5,422.3v-10.6c0-2.7-1.4-3.5-3.4-3.5c-1.9,0-3.5,1.1-4.4,2.2v11.9H166v-17h3.7v2.3
		c1.1-1.3,3.3-2.7,6-2.7c3.7,0,5.5,2,5.5,5.4v11.9H177.5z"/>
	<path fill="#0F638B" d="M185.9,418.3v-9.8h-2.8v-3.2h2.8v-4.6h3.7v4.6h3.4v3.2h-3.4v8.9c0,1.2,0.6,2,1.6,2c0.7,0,1.3-0.3,1.6-0.6
		l0.9,2.8c-0.7,0.6-1.8,1.1-3.4,1.1C187.4,422.7,185.9,421.1,185.9,418.3z"/>
	<path fill="#0F638B" d="M202.6,413.8c0-4.9,3.3-8.9,8.7-8.9c5.4,0,8.7,4,8.7,8.9c0,4.8-3.3,8.9-8.7,8.9
		C205.9,422.7,202.6,418.6,202.6,413.8z M216.2,413.8c0-3-1.7-5.6-4.9-5.6c-3.1,0-4.9,2.6-4.9,5.6c0,3,1.8,5.7,4.9,5.7
		C214.5,419.4,216.2,416.8,216.2,413.8z"/>
	<path fill="#0F638B" d="M223.8,422.3v-13.8H221v-3.2h2.8v-0.9c0-3.7,2.1-5.9,5.3-5.9c1.5,0,3.1,0.4,4.1,1.5l-1.4,2.3
		c-0.5-0.5-1.1-0.7-1.9-0.7c-1.5,0-2.4,0.9-2.4,2.8v0.9h3.4v3.2h-3.4v13.8H223.8z"/>
	<path fill="#0F638B" d="M239.6,419l2.3-3.2c1.6,1.7,4.1,3.3,7.4,3.3c3.4,0,4.7-1.6,4.7-3.2c0-4.9-13.6-1.9-13.6-10.5
		c0-3.9,3.4-6.9,8.5-6.9c3.6,0,6.6,1.2,8.7,3.3l-2.3,3.1c-1.9-1.9-4.4-2.7-6.8-2.7c-2.4,0-3.9,1.2-3.9,2.9c0,4.4,13.6,1.7,13.6,10.4
		c0,3.9-2.8,7.3-9.1,7.3C244.9,422.7,241.7,421.1,239.6,419z"/>
	<path fill="#0F638B" d="M260,413.8c0-4.9,3.6-8.9,8.6-8.9c5.1,0,8.3,3.9,8.3,9.2v0.9h-13.1c0.3,2.5,2.2,4.7,5.4,4.7
		c1.7,0,3.6-0.7,4.8-1.9l1.7,2.4c-1.7,1.6-4.2,2.5-6.9,2.5C263.8,422.7,260,419.1,260,413.8z M268.6,407.9c-3.1,0-4.6,2.4-4.7,4.5
		h9.6C273.3,410.4,271.9,407.9,268.6,407.9z"/>
	<path fill="#0F638B" d="M291.2,422.3v-10.6c0-2.7-1.4-3.5-3.4-3.5c-1.9,0-3.5,1.1-4.4,2.2v11.9h-3.7v-17h3.7v2.3
		c1.1-1.3,3.3-2.7,6-2.7c3.7,0,5.5,2,5.5,5.4v11.9H291.2z"/>
	<path fill="#0F638B" d="M297.7,413.8c0-5.1,3.6-8.9,8.7-8.9c3.3,0,5.3,1.4,6.5,3l-2.4,2.2c-0.9-1.3-2.2-2-3.9-2
		c-3.1,0-5.1,2.3-5.1,5.6c0,3.3,2.1,5.7,5.1,5.7c1.6,0,2.9-0.7,3.9-2l2.4,2.3c-1.2,1.6-3.2,3-6.5,3
		C301.4,422.7,297.7,418.9,297.7,413.8z"/>
	<path fill="#0F638B" d="M326.8,422.3v-10.7c0-2.7-1.3-3.4-3.4-3.4c-1.9,0-3.5,1.1-4.4,2.2v11.9h-3.7v-23.4h3.7v8.7
		c1.1-1.3,3.3-2.7,6-2.7c3.7,0,5.5,1.9,5.5,5.4v12H326.8z"/>
	<path fill="#0F638B" d="M344.8,422.3v-1.9c-1.3,1.5-3.3,2.3-5.5,2.3c-2.7,0-5.9-1.9-5.9-5.6c0-3.9,3.1-5.5,5.9-5.5
		c2.3,0,4.2,0.7,5.5,2.2v-2.5c0-2-1.7-3.2-4-3.2c-1.9,0-3.6,0.7-5,2.2l-1.5-2.6c2-1.9,4.4-2.7,7.1-2.7c3.8,0,7.1,1.6,7.1,6.1v11.3
		H344.8z M344.8,418.4v-2.6c-0.9-1.2-2.5-1.8-4-1.8c-2.1,0-3.7,1.2-3.7,3.1c0,1.9,1.6,3.1,3.7,3.1
		C342.4,420.2,343.9,419.6,344.8,418.4z"/>
	<path fill="#0F638B" d="M353.7,426.9l-1.7-1.4c1.1-0.7,2.3-2.1,2.5-3.3c-0.1,0-0.4,0.1-0.6,0.1c-1.2,0-2.1-0.9-2.1-2.2
		s1.1-2.4,2.4-2.4c1.4,0,2.7,1.2,2.7,3.2C357,423.3,355.6,425.6,353.7,426.9z"/>
	<path fill="#0F638B" d="M368.4,422.3v-23.4h16v3.6h-11.9v6h11.7v3.6h-11.7v10.1H368.4z"/>
	<path fill="#0F638B" d="M387.2,422.3v-17h3.7v2.5c1.3-1.6,3.3-2.9,5.5-2.9v3.7c-0.3-0.1-0.7-0.1-1.1-0.1c-1.6,0-3.7,1.1-4.4,2.3
		v11.6H387.2z"/>
	<path fill="#0F638B" d="M397.5,413.8c0-4.9,3.3-8.9,8.7-8.9c5.4,0,8.7,4,8.7,8.9c0,4.8-3.3,8.9-8.7,8.9
		C400.8,422.7,397.5,418.6,397.5,413.8z M411.1,413.8c0-3-1.7-5.6-4.9-5.6c-3.1,0-4.9,2.6-4.9,5.6c0,3,1.8,5.7,4.9,5.7
		C409.3,419.4,411.1,416.8,411.1,413.8z"/>
	<path fill="#0F638B" d="M428.2,422.3v-1.9c-1.3,1.5-3.3,2.3-5.5,2.3c-2.7,0-5.9-1.9-5.9-5.6c0-3.9,3.1-5.5,5.9-5.5
		c2.3,0,4.2,0.7,5.5,2.2v-2.5c0-2-1.7-3.2-4-3.2c-1.9,0-3.6,0.7-5,2.2l-1.5-2.6c2-1.9,4.4-2.7,7.1-2.7c3.8,0,7.1,1.6,7.1,6.1v11.3
		H428.2z M428.2,418.4v-2.6c-0.9-1.2-2.5-1.8-4-1.8c-2.1,0-3.7,1.2-3.7,3.1c0,1.9,1.6,3.1,3.7,3.1
		C425.7,420.2,427.3,419.6,428.2,418.4z"/>
	<path fill="#0F638B" d="M435.8,422.3v-23.4h3.7v23.4H435.8z"/>
	<path fill="#0F638B" d="M453.7,422.3v-1.9c-1.3,1.5-3.3,2.3-5.5,2.3c-2.7,0-5.9-1.9-5.9-5.6c0-3.9,3.1-5.5,5.9-5.5
		c2.3,0,4.2,0.7,5.5,2.2v-2.5c0-2-1.7-3.2-4-3.2c-1.9,0-3.6,0.7-5,2.2l-1.5-2.6c2-1.9,4.4-2.7,7.1-2.7c3.8,0,7.1,1.6,7.1,6.1v11.3
		H453.7z M453.7,418.4v-2.6c-0.9-1.2-2.5-1.8-4-1.8c-2.1,0-3.7,1.2-3.7,3.1c0,1.9,1.6,3.1,3.7,3.1
		C451.3,420.2,452.8,419.6,453.7,418.4z"/>
	<path fill="#0F638B" d="M484.3,422.3c-0.6-0.5-1.3-1.2-2.1-2c-1.8,1.5-3.9,2.5-6.6,2.5c-4.1,0-7.5-2.2-7.5-6.7
		c0-3.6,2.4-5.5,5.1-6.8c-1-1.8-1.7-3.5-1.7-5.2c0-3.1,2.7-5.5,6.4-5.5c3.2,0,5.8,1.7,5.8,4.8c0,3.5-2.9,5.1-5.8,6.5
		c0.8,1.1,1.6,2.1,2.3,2.9c0.8,0.9,1.5,1.9,2.3,2.7c1.1-1.7,1.9-3.5,2.3-4.9l3,1.4c-0.8,1.9-1.9,4-3.2,5.8c1.4,1.5,2.9,3,4.6,4.6
		H484.3z M480.2,418.1c-1.2-1.3-2.3-2.5-2.9-3.3c-0.9-1-1.8-2.2-2.6-3.3c-1.5,1-2.7,2.2-2.7,4.2c0,2.6,1.9,4,4.1,4
		C477.7,419.7,479,419.1,480.2,418.1z M476.4,407.6c2.2-1.1,4-2.2,4-4.1c0-1.4-1-2.3-2.4-2.3c-1.5,0-2.8,1.2-2.8,2.9
		C475.3,405.2,475.7,406.4,476.4,407.6z"/>
	<path fill="#0F638B" d="M499.5,422.3v-23.4h16v3.6h-11.9v6h11.7v3.6h-11.7v10.1H499.5z"/>
	<path fill="#0F638B" d="M529.8,422.3V420c-1.2,1.3-3.3,2.7-6,2.7c-3.7,0-5.5-1.9-5.5-5.4v-12h3.7v10.6c0,2.6,1.3,3.5,3.4,3.5
		c1.9,0,3.5-1.1,4.3-2.2v-11.9h3.7v17H529.8z"/>
	<path fill="#0F638B" d="M535.9,420l1.7-2.6c1.2,1.2,3.5,2.4,5.7,2.4c2.2,0,3.4-0.9,3.4-2.2c0-3.3-10.3-0.9-10.3-7.5
		c0-2.8,2.4-5.1,6.7-5.1c2.9,0,5.1,1,6.6,2.4l-1.5,2.6c-1-1.1-2.9-2-5-2c-1.9,0-3.1,0.9-3.1,2.1c0,3,10.3,0.7,10.3,7.5
		c0,3-2.5,5.3-7.1,5.3C540.3,422.7,537.7,421.7,535.9,420z"/>
	<path fill="#0F638B" d="M552.6,400.9c0-1.3,1-2.3,2.3-2.3c1.3,0,2.3,1,2.3,2.3c0,1.3-1,2.3-2.3,2.3
		C553.6,403.2,552.6,402.2,552.6,400.9z M553,422.3v-17h3.7v17H553z"/>
	<path fill="#0F638B" d="M559.6,413.8c0-4.9,3.3-8.9,8.7-8.9c5.4,0,8.7,4,8.7,8.9c0,4.8-3.3,8.9-8.7,8.9
		C562.9,422.7,559.6,418.6,559.6,413.8z M573.2,413.8c0-3-1.7-5.6-4.9-5.6c-3.1,0-4.9,2.6-4.9,5.6c0,3,1.8,5.7,4.9,5.7
		C571.5,419.4,573.2,416.8,573.2,413.8z"/>
	<path fill="#0F638B" d="M591.4,422.3v-10.6c0-2.7-1.4-3.5-3.4-3.5c-1.9,0-3.5,1.1-4.4,2.2v11.9h-3.7v-17h3.7v2.3
		c1.1-1.3,3.3-2.7,6-2.7c3.7,0,5.5,2,5.5,5.4v11.9H591.4z"/>
	<path fill="#0F638B" d="M598.1,410.6c0-7.2,5.4-12.1,12.3-12.1c4.7,0,7.7,2.4,9.4,5.2l-3.5,1.8c-1.1-2-3.4-3.4-5.9-3.4
		c-4.6,0-8.1,3.5-8.1,8.5c0,4.9,3.4,8.5,8.1,8.5c2.5,0,4.8-1.5,5.9-3.4l3.5,1.8c-1.8,2.8-4.7,5.3-9.4,5.3
		C603.4,422.7,598.1,417.8,598.1,410.6z"/>
	<path fill="#0F638B" d="M633.5,422.3v-10.7c0-2.7-1.3-3.4-3.4-3.4c-1.9,0-3.5,1.1-4.4,2.2v11.9h-3.7v-23.4h3.7v8.7
		c1.1-1.3,3.3-2.7,6-2.7c3.7,0,5.5,1.9,5.5,5.4v12H633.5z"/>
	<path fill="#0F638B" d="M651.5,422.3v-1.9c-1.3,1.5-3.3,2.3-5.5,2.3c-2.7,0-5.9-1.9-5.9-5.6c0-3.9,3.1-5.5,5.9-5.5
		c2.3,0,4.2,0.7,5.5,2.2v-2.5c0-2-1.7-3.2-4-3.2c-1.9,0-3.6,0.7-5,2.2l-1.5-2.6c2-1.9,4.4-2.7,7.1-2.7c3.8,0,7.1,1.6,7.1,6.1v11.3
		H651.5z M651.5,418.4v-2.6c-0.9-1.2-2.5-1.8-4-1.8c-2.1,0-3.7,1.2-3.7,3.1c0,1.9,1.6,3.1,3.7,3.1
		C649,420.2,650.6,419.6,651.5,418.4z"/>
	<path fill="#0F638B" d="M659.1,422.3v-17h3.7v2.5c1.3-1.6,3.3-2.9,5.5-2.9v3.7c-0.3-0.1-0.7-0.1-1.1-0.1c-1.6,0-3.7,1.1-4.4,2.3
		v11.6H659.1z"/>
	<path fill="#0F638B" d="M671.2,418.3v-9.8h-2.8v-3.2h2.8v-4.6h3.7v4.6h3.4v3.2h-3.4v8.9c0,1.2,0.6,2,1.6,2c0.7,0,1.3-0.3,1.6-0.6
		l0.9,2.8c-0.7,0.6-1.8,1.1-3.4,1.1C672.6,422.7,671.2,421.1,671.2,418.3z"/>
	<path fill="#0F638B" d="M679.3,420l1.7-2.6c1.2,1.2,3.5,2.4,5.7,2.4c2.2,0,3.4-0.9,3.4-2.2c0-3.3-10.3-0.9-10.3-7.5
		c0-2.8,2.4-5.1,6.7-5.1c2.9,0,5.1,1,6.6,2.4l-1.5,2.6c-1-1.1-2.9-2-5-2c-1.9,0-3.1,0.9-3.1,2.1c0,3,10.3,0.7,10.3,7.5
		c0,3-2.5,5.3-7.1,5.3C683.6,422.7,681,421.7,679.3,420z"/>
</g>
</svg>
