<svg width="1200" height="628" viewBox="0 0 1200 628" fill="none" xmlns="http://www.w3.org/2000/svg">
<path d="M863.44 174.34L600.5 22.4037L337.7 174.259L344.31 173.919L354.269 173.927L600.5 31.6463L847.422 174.327L863.44 174.34Z" fill="#F649A7"/>
<path d="M987.297 245.909C986.048 248.271 984.732 250.593 983.352 252.872L1090 314.5L990.021 372.274C987.822 376.914 985.372 381.413 982.69 385.753L1106 314.5L987.297 245.909Z" fill="#F649A7"/>
<path d="M868.598 451.68L857.86 452.232H851.646L600.5 597.354L349.354 452.232H344.31L332.288 451.614L600.5 606.596L868.598 451.68Z" fill="#F649A7"/>
<path d="M220.14 386.811C217.382 382.435 214.861 377.895 212.596 373.209L110.995 314.5L210.788 256.836C212.794 252.333 215.033 247.956 217.49 243.721L95 314.5L220.14 386.811Z" fill="#F649A7"/>
<path d="M732.716 187.792H614.115L614.116 306.392C678.025 303.103 729.427 251.701 732.716 187.792Z" fill="#9AC6C9"/>
<path d="M601.084 187.959C537.175 191.247 485.773 242.65 482.484 306.559H601.084V187.959Z" fill="#9AC6C9"/>
<path d="M482.484 438.357C485.773 374.448 537.175 323.045 601.084 319.757V438.357H482.484Z" fill="#9AC6C9"/>
<path d="M732.716 319.59H614.115L614.116 438.19C678.025 434.902 729.427 383.499 732.716 319.59Z" fill="#9AC6C9"/>
<path d="M739.566 306.559C742.854 242.65 794.257 191.247 858.166 187.959L858.167 306.559H739.566Z" fill="#9AC6C9"/>
<path d="M989.798 187.792H871.198V306.392C935.107 303.103 986.509 251.701 989.798 187.792Z" fill="#9AC6C9"/>
<path d="M739.566 438.357C742.854 374.448 794.257 323.045 858.166 319.757L858.167 438.357H739.566Z" fill="#9AC6C9"/>
<path d="M989.798 319.59H871.198V438.19C935.107 434.902 986.509 383.499 989.798 319.59Z" fill="#9AC6C9"/>
<path d="M212.372 306.561C215.661 242.652 267.063 191.25 330.972 187.961V306.561H212.372Z" fill="#9AC6C9"/>
<path d="M344.17 187.792C347.459 251.701 398.861 303.103 462.771 306.392V187.792H344.17Z" fill="#9AC6C9"/>
<path d="M330.972 438.19C267.063 434.902 215.661 383.499 212.372 319.59H330.972V438.19Z" fill="#9AC6C9"/>
<path d="M462.771 319.757C398.861 323.045 347.459 374.448 344.17 438.357H462.771V319.757Z" fill="#9AC6C9"/>
<path d="M520.007 120.25L515.576 122.876C514.748 121.438 513.958 120.5 513.208 120.063C512.427 119.562 511.419 119.312 510.184 119.312C508.668 119.312 507.409 119.742 506.409 120.602C505.409 121.446 504.909 122.509 504.909 123.79C504.909 125.557 506.222 126.979 508.847 128.057L512.458 129.534C515.396 130.722 517.546 132.176 518.905 133.895C520.265 135.599 520.945 137.693 520.945 140.179C520.945 143.508 519.835 146.259 517.616 148.431C515.381 150.619 512.606 151.714 509.293 151.714C506.151 151.714 503.557 150.784 501.509 148.924C499.493 147.064 498.235 144.446 497.734 141.069L503.267 139.85C503.518 141.976 503.955 143.445 504.58 144.258C505.706 145.821 507.347 146.603 509.504 146.603C511.208 146.603 512.622 146.032 513.747 144.891C514.873 143.75 515.436 142.304 515.436 140.554C515.436 139.85 515.334 139.209 515.131 138.631C514.943 138.037 514.638 137.498 514.216 137.013C513.81 136.513 513.279 136.052 512.622 135.63C511.966 135.193 511.184 134.778 510.278 134.388L506.784 132.934C501.829 130.84 499.352 127.776 499.352 123.743C499.352 121.024 500.392 118.75 502.47 116.921C504.549 115.077 507.136 114.154 510.231 114.154C514.404 114.154 517.663 116.186 520.007 120.25Z" fill="#9AC6C9"/>
<path d="M538.224 119.992V151.057H532.762V119.992H524.438V114.858H546.524V119.992H538.224Z" fill="#9AC6C9"/>
<path d="M570.696 142.265H555.199L551.166 151.057H545.281L563.193 112.583L580.473 151.057H574.494L570.696 142.265ZM568.469 137.131L563.1 124.822L557.473 137.131H568.469Z" fill="#9AC6C9"/>
<path d="M592.992 119.992V151.057H587.53V119.992H579.207V114.858H601.292V119.992H592.992Z" fill="#9AC6C9"/>
<path d="M626.144 119.992H611.631V128.69H625.722V133.825H611.631V145.923H626.144V151.057H606.169V114.858H626.144V119.992Z" fill="#9AC6C9"/>
<path d="M646.33 132.793C646.33 127.698 648.198 123.321 651.934 119.664C655.654 116.006 660.124 114.178 665.344 114.178C670.502 114.178 674.926 116.022 678.614 119.711C682.319 123.4 684.171 127.831 684.171 133.004C684.171 138.209 682.311 142.625 678.591 146.251C674.855 149.893 670.346 151.714 665.063 151.714C660.39 151.714 656.193 150.096 652.473 146.86C648.378 143.281 646.33 138.592 646.33 132.793ZM651.84 132.864C651.84 136.865 653.184 140.155 655.872 142.734C658.545 145.313 661.632 146.603 665.133 146.603C668.931 146.603 672.136 145.29 674.746 142.664C677.356 140.007 678.661 136.771 678.661 132.957C678.661 129.097 677.372 125.861 674.793 123.251C672.229 120.625 669.056 119.312 665.274 119.312C661.507 119.312 658.326 120.625 655.732 123.251C653.137 125.846 651.84 129.05 651.84 132.864Z" fill="#9AC6C9"/>
<path d="M709.117 119.992H696.503V128.69H708.671V133.825H696.503V151.057H691.04V114.858H709.117V119.992Z" fill="#9AC6C9"/>
<path d="M553.94 514.044H567.421V519.179H543.109L555.675 503.963C556.91 502.446 557.942 501.134 558.77 500.024C559.614 498.914 560.255 497.984 560.693 497.234C561.583 495.765 562.029 494.444 562.029 493.272C562.029 491.583 561.435 490.169 560.247 489.028C559.059 487.887 557.59 487.316 555.839 487.316C552.182 487.316 550.088 489.481 549.556 493.811H544.117C544.992 486.183 548.845 482.37 555.675 482.37C558.973 482.37 561.74 483.417 563.975 485.511C566.226 487.606 567.351 490.2 567.351 493.295C567.351 495.264 566.827 497.195 565.78 499.086C565.249 500.071 564.467 501.243 563.436 502.603C562.42 503.947 561.13 505.541 559.567 507.386L553.94 514.044Z" fill="#9AC6C9"/>
<path d="M573.587 500.844C573.587 495.077 574.932 490.474 577.62 487.035C580.027 483.925 582.942 482.37 586.365 482.37C589.788 482.37 592.703 483.925 595.11 487.035C597.799 490.474 599.143 495.155 599.143 501.079C599.143 506.987 597.799 511.66 595.11 515.099C592.703 518.209 589.796 519.765 586.389 519.765C582.981 519.765 580.058 518.209 577.62 515.099C574.932 511.66 573.587 506.909 573.587 500.844ZM578.956 500.868C578.956 504.885 579.652 508.222 581.043 510.879C582.434 513.489 584.208 514.794 586.365 514.794C588.506 514.794 590.28 513.489 591.687 510.879C593.094 508.284 593.797 505.01 593.797 501.055C593.797 497.101 593.094 493.819 591.687 491.208C590.28 488.614 588.506 487.316 586.365 487.316C584.239 487.316 582.473 488.614 581.066 491.208C579.66 493.787 578.956 497.007 578.956 500.868Z" fill="#9AC6C9"/>
<path d="M613.21 514.044H626.691V519.179H602.378L614.945 503.963C616.18 502.446 617.211 501.134 618.04 500.024C618.884 498.914 619.524 497.984 619.962 497.234C620.853 495.765 621.298 494.444 621.298 493.272C621.298 491.583 620.705 490.169 619.517 489.028C618.329 487.887 616.86 487.316 615.109 487.316C611.451 487.316 609.357 489.481 608.826 493.811H603.386C604.262 486.183 608.114 482.37 614.945 482.37C618.243 482.37 621.009 483.417 623.244 485.511C625.495 487.606 626.621 490.2 626.621 493.295C626.621 495.264 626.097 497.195 625.05 499.086C624.518 500.071 623.737 501.243 622.705 502.603C621.689 503.947 620.4 505.541 618.837 507.386L613.21 514.044Z" fill="#9AC6C9"/>
<path d="M639.797 488.09H633.537L636.538 482.979H645.26V519.179H639.797V488.09Z" fill="#9AC6C9"/>
</svg>
