<svg width="250" height="250" viewBox="0 0 250 250" fill="none" xmlns="http://www.w3.org/2000/svg">
<g clip-path="url(#clip0_313_540)">
<path d="M51.9991 83.5391L16.0439 187.454L124.022 208.014L51.9991 83.5391Z" fill="#FF9FD7"/>
<path d="M51.9989 83.5397L124.022 0.431396L16.0438 62.7726L51.9989 83.5397Z" fill="#F472C3"/>
<path d="M16.0439 62.7729V187.455L51.9991 83.54L16.0439 62.7729Z" fill="#E166B2"/>
<path d="M195.73 83.5399L124.022 0.431641L51.9991 83.5399H195.73Z" fill="#FF98D5"/>
<path d="M195.73 83.54L232 187.455V62.7729L195.73 83.54Z" fill="#E166B2"/>
<path d="M232 62.7728L124.022 0.431641L195.73 83.5399L232 62.7728Z" fill="#F472C3"/>
<path d="M124.022 208.014L232 187.454L195.73 83.5391L124.022 208.014Z" fill="#FF9FD7"/>
<path d="M16.0439 187.455L124.022 249.796V208.015L16.0439 187.455Z" fill="#C63C98"/>
<path d="M124.022 249.796L232 187.455L124.022 208.015V249.796Z" fill="#C63C98"/>
<path d="M124.022 208.014L195.73 83.5391H51.9991L124.022 208.014Z" fill="#FFB8E4"/>
<path d="M51.9991 83.5391L16.0439 187.454L124.022 208.014L51.9991 83.5391Z" fill="url(#paint0_linear_313_540)"/>
<path d="M51.9989 83.5397L124.022 0.431396L16.0438 62.7726L51.9989 83.5397Z" fill="url(#paint1_linear_313_540)"/>
<path d="M16.0439 62.7729V187.455L51.9991 83.54L16.0439 62.7729Z" fill="url(#paint2_linear_313_540)"/>
<path d="M195.73 83.5399L124.022 0.431641L51.9991 83.5399H195.73Z" fill="url(#paint3_linear_313_540)"/>
<path d="M195.73 83.54L232 187.455V62.7729L195.73 83.54Z" fill="url(#paint4_linear_313_540)"/>
<path d="M232 62.7728L124.022 0.431641L195.73 83.5399L232 62.7728Z" fill="url(#paint5_linear_313_540)"/>
<path d="M124.022 208.014L232 187.454L195.73 83.5391L124.022 208.014Z" fill="url(#paint6_linear_313_540)"/>
<path d="M16.0439 187.455L124.022 249.796V208.015L16.0439 187.455Z" fill="url(#paint7_linear_313_540)"/>
<path d="M124.022 249.796L232 187.455L124.022 208.015V249.796Z" fill="url(#paint8_linear_313_540)"/>
<path d="M124.022 208.014L195.73 83.5391H51.9991L124.022 208.014Z" fill="url(#paint9_linear_313_540)"/>
<g opacity="0.95" filter="url(#filter0_d_313_540)">
<path d="M96.5901 84.2019C96.5901 125.269 52.2697 132.182 52.2697 174.062V191.547H116.921V171.216H74.6332C74.4299 170.2 74.4299 169.183 74.4299 168.167C74.4299 144.787 118.954 128.116 118.954 83.3887C118.954 60.6186 107.569 47.6071 85.6116 47.6071C63.6548 47.6071 52.2697 60.6186 52.2697 83.3887V97.2134H73.4134V81.9656C73.4134 71.8003 77.8861 67.9375 85.0017 67.9375C92.1174 67.9375 96.5901 71.3937 96.5901 84.2019ZM177.197 84.2019C177.197 125.269 132.877 132.182 132.877 174.062V191.547H197.528V171.216H155.24C155.037 170.2 155.037 169.183 155.037 168.167C155.037 144.787 199.561 128.116 199.561 83.3887C199.561 60.6186 188.176 47.6071 166.219 47.6071C144.262 47.6071 132.877 60.6186 132.877 83.3887V97.2134H154.02V81.9656C154.02 71.8003 158.493 67.9375 165.609 67.9375C172.724 67.9375 177.197 71.3937 177.197 84.2019Z" fill="white"/>
<path d="M52.2697 191.547H49.2697V194.547H52.2697V191.547ZM116.921 191.547V194.547H119.921V191.547H116.921ZM116.921 171.216H119.921V168.216H116.921V171.216ZM74.6332 171.216L71.6915 171.805L72.1738 174.216H74.6332V171.216ZM52.2697 97.2134H49.2697V100.213H52.2697V97.2134ZM73.4134 97.2134V100.213H76.4134V97.2134H73.4134ZM93.5901 84.2019C93.5901 103.443 83.3484 114.649 72.2177 126.801C61.1632 138.869 49.2697 151.845 49.2697 174.062H55.2697C55.2697 154.4 65.5364 142.978 76.6421 130.854C87.6715 118.812 99.5901 106.029 99.5901 84.2019H93.5901ZM49.2697 174.062V191.547H55.2697V174.062H49.2697ZM52.2697 194.547H116.921V188.547H52.2697V194.547ZM119.921 191.547V171.216H113.921V191.547H119.921ZM116.921 168.216H74.6332V174.216H116.921V168.216ZM77.5749 170.628C77.4393 169.95 77.4299 169.23 77.4299 168.167H71.4299C71.4299 169.137 71.4205 170.45 71.6915 171.805L77.5749 170.628ZM77.4299 168.167C77.4299 163.301 79.7419 158.524 83.7842 153.15C87.8717 147.715 93.2165 142.29 98.9464 135.762C110.204 122.937 121.954 106.88 121.954 83.3887H115.954C115.954 104.624 105.442 119.267 94.4371 131.804C89.036 137.957 83.25 143.878 78.9892 149.543C74.6834 155.268 71.4299 161.342 71.4299 168.167H77.4299ZM121.954 83.3887C121.954 71.5412 118.992 61.7653 112.728 54.9319C106.424 48.0555 97.1906 44.6071 85.6116 44.6071V50.6071C95.9896 50.6071 103.427 53.6645 108.305 58.9863C113.223 64.3512 115.954 72.466 115.954 83.3887H121.954ZM85.6116 44.6071C74.0327 44.6071 64.7988 48.0555 58.4954 54.9319C52.2314 61.7653 49.2697 71.5412 49.2697 83.3887H55.2697C55.2697 72.466 58.0005 64.3512 62.9183 58.9863C67.7966 53.6645 75.2337 50.6071 85.6116 50.6071V44.6071ZM49.2697 83.3887V97.2134H55.2697V83.3887H49.2697ZM52.2697 100.213H73.4134V94.2134H52.2697V100.213ZM76.4134 97.2134V81.9656H70.4134V97.2134H76.4134ZM76.4134 81.9656C76.4134 77.2555 77.4582 74.6067 78.7716 73.1437C80.0266 71.7457 81.9755 70.9375 85.0017 70.9375V64.9375C80.9123 64.9375 77.067 66.0608 74.3068 69.1355C71.6049 72.1452 70.4134 76.5104 70.4134 81.9656H76.4134ZM85.0017 70.9375C88.0934 70.9375 89.9279 71.6751 91.1381 73.1611C92.4855 74.8155 93.5901 78.0201 93.5901 84.2019H99.5901C99.5901 77.5755 98.4583 72.648 95.7904 69.3722C92.9854 65.9281 89.0257 64.9375 85.0017 64.9375V70.9375ZM132.877 191.547H129.877V194.547H132.877V191.547ZM197.528 191.547V194.547H200.528V191.547H197.528ZM197.528 171.216H200.528V168.216H197.528V171.216ZM155.24 171.216L152.298 171.805L152.781 174.216H155.24V171.216ZM132.877 97.2134H129.877V100.213H132.877V97.2134ZM154.02 97.2134V100.213H157.02V97.2134H154.02ZM174.197 84.2019C174.197 103.443 163.955 114.649 152.825 126.801C141.77 138.869 129.877 151.845 129.877 174.062H135.877C135.877 154.4 146.143 142.978 157.249 130.854C168.279 118.812 180.197 106.029 180.197 84.2019H174.197ZM129.877 174.062V191.547H135.877V174.062H129.877ZM132.877 194.547H197.528V188.547H132.877V194.547ZM200.528 191.547V171.216H194.528V191.547H200.528ZM197.528 168.216H155.24V174.216H197.528V168.216ZM158.182 170.628C158.046 169.95 158.037 169.23 158.037 168.167H152.037C152.037 169.137 152.027 170.45 152.298 171.805L158.182 170.628ZM158.037 168.167C158.037 163.301 160.349 158.524 164.391 153.15C168.479 147.715 173.824 142.29 179.553 135.762C190.811 122.937 202.561 106.88 202.561 83.3887H196.561C196.561 104.624 186.049 119.267 175.044 131.804C169.643 137.957 163.857 143.878 159.596 149.543C155.29 155.268 152.037 161.342 152.037 168.167H158.037ZM202.561 83.3887C202.561 71.5412 199.599 61.7653 193.335 54.9319C187.031 48.0555 177.798 44.6071 166.219 44.6071V50.6071C176.597 50.6071 184.034 53.6645 188.912 58.9863C193.83 64.3512 196.561 72.466 196.561 83.3887H202.561ZM166.219 44.6071C154.64 44.6071 145.406 48.0555 139.102 54.9319C132.838 61.7653 129.877 71.5412 129.877 83.3887H135.877C135.877 72.466 138.608 64.3512 143.525 58.9863C148.404 53.6645 155.841 50.6071 166.219 50.6071V44.6071ZM129.877 83.3887V97.2134H135.877V83.3887H129.877ZM132.877 100.213H154.02V94.2134H132.877V100.213ZM157.02 97.2134V81.9656H151.02V97.2134H157.02ZM157.02 81.9656C157.02 77.2555 158.065 74.6067 159.379 73.1437C160.634 71.7457 162.582 70.9375 165.609 70.9375V64.9375C161.519 64.9375 157.674 66.0608 154.914 69.1355C152.212 72.1452 151.02 76.5104 151.02 81.9656H157.02ZM165.609 70.9375C168.7 70.9375 170.535 71.6751 171.745 73.1611C173.092 74.8155 174.197 78.0201 174.197 84.2019H180.197C180.197 77.5755 179.065 72.648 176.397 69.3722C173.592 65.9281 169.633 64.9375 165.609 64.9375V70.9375Z" fill="#CC50A3"/>
</g>
</g>
<defs>
<filter id="filter0_d_313_540" x="40.0392" y="43.938" width="171.752" height="168.401" filterUnits="userSpaceOnUse" color-interpolation-filters="sRGB">
<feFlood flood-opacity="0" result="BackgroundImageFix"/>
<feColorMatrix in="SourceAlpha" type="matrix" values="0 0 0 0 0 0 0 0 0 0 0 0 0 0 0 0 0 0 127 0" result="hardAlpha"/>
<feOffset dy="8.56143"/>
<feGaussianBlur stdDeviation="6.1153"/>
<feComposite in2="hardAlpha" operator="out"/>
<feColorMatrix type="matrix" values="0 0 0 0 0.408333 0 0 0 0 0.153125 0 0 0 0 0.311701 0 0 0 0.53 0"/>
<feBlend mode="normal" in2="BackgroundImageFix" result="effect1_dropShadow_313_540"/>
<feBlend mode="normal" in="SourceGraphic" in2="effect1_dropShadow_313_540" result="shape"/>
</filter>
<linearGradient id="paint0_linear_313_540" x1="15.9886" y1="187.358" x2="88.0696" y2="145.742" gradientUnits="userSpaceOnUse">
<stop stop-color="white" stop-opacity="0.4"/>
<stop offset="1" stop-color="white" stop-opacity="0"/>
</linearGradient>
<linearGradient id="paint1_linear_313_540" x1="25.0344" y1="78.3447" x2="133.013" y2="16.0035" gradientUnits="userSpaceOnUse">
<stop stop-color="white" stop-opacity="0.4"/>
<stop offset="1" stop-color="white" stop-opacity="0"/>
</linearGradient>
<linearGradient id="paint2_linear_313_540" x1="-10.9506" y1="140.699" x2="61.0124" y2="99.1516" gradientUnits="userSpaceOnUse">
<stop stop-color="white" stop-opacity="0.4"/>
<stop offset="1" stop-color="white" stop-opacity="0"/>
</linearGradient>
<linearGradient id="paint3_linear_313_540" x1="60.975" y1="99.0865" x2="168.773" y2="36.849" gradientUnits="userSpaceOnUse">
<stop stop-color="white" stop-opacity="0.4"/>
<stop offset="1" stop-color="white" stop-opacity="0"/>
</linearGradient>
<linearGradient id="paint4_linear_313_540" x1="204.968" y1="140.634" x2="258.957" y2="109.464" gradientUnits="userSpaceOnUse">
<stop stop-color="white" stop-opacity="0.4"/>
<stop offset="1" stop-color="white" stop-opacity="0"/>
</linearGradient>
<linearGradient id="paint5_linear_313_540" x1="114.861" y1="25.6016" x2="230.244" y2="67.5976" gradientUnits="userSpaceOnUse">
<stop stop-color="white" stop-opacity="0.4"/>
<stop offset="1" stop-color="white" stop-opacity="0"/>
</linearGradient>
<linearGradient id="paint6_linear_313_540" x1="115.082" y1="192.529" x2="222.762" y2="130.36" gradientUnits="userSpaceOnUse">
<stop stop-color="white" stop-opacity="0.4"/>
<stop offset="1" stop-color="white" stop-opacity="0"/>
</linearGradient>
<linearGradient id="paint7_linear_313_540" x1="43.0385" y1="234.211" x2="115.12" y2="192.595" gradientUnits="userSpaceOnUse">
<stop stop-color="white" stop-opacity="0.4"/>
<stop offset="1" stop-color="white" stop-opacity="0"/>
</linearGradient>
<linearGradient id="paint8_linear_313_540" x1="114.976" y1="234.128" x2="222.954" y2="171.787" gradientUnits="userSpaceOnUse">
<stop stop-color="white" stop-opacity="0.4"/>
<stop offset="1" stop-color="white" stop-opacity="0"/>
</linearGradient>
<linearGradient id="paint9_linear_313_540" x1="87.9516" y1="145.811" x2="195.75" y2="83.5732" gradientUnits="userSpaceOnUse">
<stop stop-color="white" stop-opacity="0.5"/>
<stop offset="1" stop-color="white" stop-opacity="0"/>
</linearGradient>
<clipPath id="clip0_313_540">
<rect width="250" height="250" fill="white"/>
</clipPath>
</defs>
</svg>
