<svg width="250" height="250" viewBox="0 0 250 250" fill="none" xmlns="http://www.w3.org/2000/svg">
<g clip-path="url(#clip0_313_540)">
<path d="M53.3331 84.3096L18.0439 186.3L124.022 206.479L53.3331 84.3096Z" fill="#FF9FD7"/>
<path d="M53.333 84.3099L124.022 2.74097L18.0438 63.9275L53.333 84.3099Z" fill="#F472C3"/>
<path d="M18.0439 63.9277V186.301L53.3331 84.3102L18.0439 63.9277Z" fill="#E166B2"/>
<path d="M194.402 84.3102L124.022 2.74121L53.3331 84.3102H194.402Z" fill="#FF98D5"/>
<path d="M194.402 84.3102L230 186.301V63.9277L194.402 84.3102Z" fill="#E166B2"/>
<path d="M230 63.9277L124.022 2.74121L194.402 84.3102L230 63.9277Z" fill="#F472C3"/>
<path d="M124.022 206.479L230 186.3L194.402 84.3096L124.022 206.479Z" fill="#FF9FD7"/>
<path d="M18.0439 186.301L124.022 247.487V206.48L18.0439 186.301Z" fill="#C63C98"/>
<path d="M124.022 247.487L230 186.301L124.022 206.48V247.487Z" fill="#C63C98"/>
<path d="M124.022 206.479L194.402 84.3096H53.3331L124.022 206.479Z" fill="#FFB8E4"/>
<path d="M53.3331 84.3096L18.0439 186.3L124.022 206.479L53.3331 84.3096Z" fill="url(#paint0_linear_313_540)"/>
<path d="M53.333 84.3099L124.022 2.74097L18.0438 63.9275L53.333 84.3099Z" fill="url(#paint1_linear_313_540)"/>
<path d="M18.0439 63.9277V186.301L53.3331 84.3102L18.0439 63.9277Z" fill="url(#paint2_linear_313_540)"/>
<path d="M194.402 84.3102L124.022 2.74121L53.3331 84.3102H194.402Z" fill="url(#paint3_linear_313_540)"/>
<path d="M194.402 84.3102L230 186.301V63.9277L194.402 84.3102Z" fill="url(#paint4_linear_313_540)"/>
<path d="M230 63.9277L124.022 2.74121L194.402 84.3102L230 63.9277Z" fill="url(#paint5_linear_313_540)"/>
<path d="M124.022 206.479L230 186.3L194.402 84.3096L124.022 206.479Z" fill="url(#paint6_linear_313_540)"/>
<path d="M18.0439 186.301L124.022 247.487V206.48L18.0439 186.301Z" fill="url(#paint7_linear_313_540)"/>
<path d="M124.022 247.487L230 186.301L124.022 206.48V247.487Z" fill="url(#paint8_linear_313_540)"/>
<path d="M124.022 206.479L194.402 84.3096H53.3331L124.022 206.479Z" fill="url(#paint9_linear_313_540)"/>
<g style="mix-blend-mode:soft-light" filter="url(#filter0_d_313_540)">
<path d="M101.725 97.6971C101.725 131.275 65.4875 136.926 65.4875 171.169V185.464H118.347V168.842H83.7723C83.6061 168.011 83.6061 167.18 83.6061 166.348C83.6061 147.232 120.01 133.602 120.01 97.0322C120.01 78.4149 110.701 67.7764 92.7485 67.7764C74.7961 67.7764 65.4875 78.4149 65.4875 97.0322V108.336H82.775V95.8686C82.775 87.5573 86.4319 84.399 92.2498 84.399C98.0677 84.399 101.725 87.2248 101.725 97.6971ZM167.631 97.6971C167.631 131.275 131.393 136.926 131.393 171.169V185.464H184.253V168.842H149.678C149.512 168.011 149.512 167.18 149.512 166.348C149.512 147.232 185.916 133.602 185.916 97.0322C185.916 78.4149 176.607 67.7764 158.654 67.7764C140.702 67.7764 131.393 78.4149 131.393 97.0322V108.336H148.681V95.8686C148.681 87.5573 152.338 84.399 158.156 84.399C163.974 84.399 167.631 87.2248 167.631 97.6971Z" fill="white"/>
<path d="M65.4875 185.464H61.4875V189.464H65.4875V185.464ZM118.347 185.464V189.464H122.347V185.464H118.347ZM118.347 168.842H122.347V164.842H118.347V168.842ZM83.7723 168.842L79.85 169.626L80.4931 172.842H83.7723V168.842ZM65.4875 108.336H61.4875V112.336H65.4875V108.336ZM82.775 108.336V112.336H86.775V108.336H82.775ZM97.7247 97.6971C97.7247 112.762 89.7833 121.518 80.6564 131.482C71.6314 141.335 61.4875 152.344 61.4875 171.169H69.4875C69.4875 155.751 77.4622 146.813 86.5557 136.885C95.5475 127.069 105.725 116.21 105.725 97.6971H97.7247ZM61.4875 171.169V185.464H69.4875V171.169H61.4875ZM65.4875 189.464H118.347V181.464H65.4875V189.464ZM122.347 185.464V168.842H114.347V185.464H122.347ZM118.347 164.842H83.7723V172.842H118.347V164.842ZM87.6946 168.057C87.6187 167.677 87.6061 167.241 87.6061 166.348H79.6061C79.6061 167.118 79.5935 168.344 79.85 169.626L87.6946 168.057ZM87.6061 166.348C87.6061 162.875 89.2536 159.304 92.4908 155C95.7881 150.616 100.044 146.308 104.814 140.874C114.084 130.314 124.01 116.821 124.01 97.0322H116.01C116.01 113.813 107.734 125.42 98.8016 135.597C94.4704 140.531 89.6258 145.5 86.0974 150.191C82.509 154.962 79.6061 160.264 79.6061 166.348H87.6061ZM124.01 97.0322C124.01 87.107 121.528 78.6857 116.06 72.7199C110.539 66.6967 102.525 63.7764 92.7485 63.7764V71.7764C100.924 71.7764 106.541 74.1754 110.163 78.1257C113.836 82.1335 116.01 88.3401 116.01 97.0322H124.01ZM92.7485 63.7764C82.9717 63.7764 74.9585 66.6967 69.4372 72.7199C63.9686 78.6857 61.4875 87.107 61.4875 97.0322H69.4875C69.4875 88.3401 71.6607 82.1335 75.3345 78.1257C78.9556 74.1754 84.573 71.7764 92.7485 71.7764V63.7764ZM61.4875 97.0322V108.336H69.4875V97.0322H61.4875ZM65.4875 112.336H82.775V104.336H65.4875V112.336ZM86.775 108.336V95.8686H78.775V108.336H86.775ZM86.775 95.8686C86.775 92.2097 87.5914 90.4865 88.3072 89.6892C88.9452 88.9785 90.0497 88.399 92.2498 88.399V80.399C88.6321 80.399 84.9991 81.3987 82.3541 84.3449C79.787 87.2046 78.775 91.2162 78.775 95.8686H86.775ZM92.2498 88.399C94.5372 88.399 95.4891 88.9368 96.0675 89.6469C96.8285 90.5814 97.7247 92.7574 97.7247 97.6971H105.725C105.725 92.1645 104.792 87.6915 102.271 84.595C99.5659 81.2741 95.7803 80.399 92.2498 80.399V88.399ZM131.393 185.464H127.393V189.464H131.393V185.464ZM184.253 185.464V189.464H188.253V185.464H184.253ZM184.253 168.842H188.253V164.842H184.253V168.842ZM149.678 168.842L145.756 169.626L146.399 172.842H149.678V168.842ZM131.393 108.336H127.393V112.336H131.393V108.336ZM148.681 108.336V112.336H152.681V108.336H148.681ZM163.631 97.6971C163.631 112.762 155.689 121.518 146.562 131.482C137.537 141.335 127.393 152.344 127.393 171.169H135.393C135.393 155.751 143.368 146.813 152.462 136.885C161.453 127.069 171.631 116.21 171.631 97.6971H163.631ZM127.393 171.169V185.464H135.393V171.169H127.393ZM131.393 189.464H184.253V181.464H131.393V189.464ZM188.253 185.464V168.842H180.253V185.464H188.253ZM184.253 164.842H149.678V172.842H184.253V164.842ZM153.601 168.057C153.525 167.677 153.512 167.241 153.512 166.348H145.512C145.512 167.118 145.499 168.344 145.756 169.626L153.601 168.057ZM153.512 166.348C153.512 162.875 155.16 159.304 158.397 155C161.694 150.616 165.95 146.308 170.72 140.874C179.989 130.314 189.916 116.821 189.916 97.0322H181.916C181.916 113.813 173.64 125.42 164.708 135.597C160.376 140.531 155.532 145.5 152.003 150.191C148.415 154.962 145.512 160.264 145.512 166.348H153.512ZM189.916 97.0322C189.916 87.107 187.434 78.6857 181.966 72.7199C176.444 66.6967 168.431 63.7764 158.654 63.7764V71.7764C166.83 71.7764 172.447 74.1754 176.069 78.1257C179.742 82.1335 181.916 88.3401 181.916 97.0322H189.916ZM158.654 63.7764C148.878 63.7764 140.864 66.6967 135.343 72.7199C129.875 78.6857 127.393 87.107 127.393 97.0322H135.393C135.393 88.3401 137.567 82.1335 141.24 78.1257C144.862 74.1754 150.479 71.7764 158.654 71.7764V63.7764ZM127.393 97.0322V108.336H135.393V97.0322H127.393ZM131.393 112.336H148.681V104.336H131.393V112.336ZM152.681 108.336V95.8686H144.681V108.336H152.681ZM152.681 95.8686C152.681 92.2097 153.497 90.4865 154.213 89.6892C154.851 88.9785 155.956 88.399 158.156 88.399V80.399C154.538 80.399 150.905 81.3987 148.26 84.3449C145.693 87.2046 144.681 91.2162 144.681 95.8686H152.681ZM158.156 88.399C160.443 88.399 161.395 88.9368 161.973 89.6469C162.735 90.5814 163.631 92.7574 163.631 97.6971H171.631C171.631 92.1645 170.698 87.6915 168.176 84.595C165.472 81.2741 161.686 80.399 158.156 80.399V88.399Z" fill="black"/>
</g>
</g>
<defs>
<filter id="filter0_d_313_540" x="55.4874" y="64.7764" width="140.428" height="137.688" filterUnits="userSpaceOnUse" color-interpolation-filters="sRGB">
<feFlood flood-opacity="0" result="BackgroundImageFix"/>
<feColorMatrix in="SourceAlpha" type="matrix" values="0 0 0 0 0 0 0 0 0 0 0 0 0 0 0 0 0 0 127 0" result="hardAlpha"/>
<feOffset dy="7"/>
<feGaussianBlur stdDeviation="5"/>
<feComposite in2="hardAlpha" operator="out"/>
<feColorMatrix type="matrix" values="0 0 0 0 0 0 0 0 0 0 0 0 0 0 0 0 0 0 0.55 0"/>
<feBlend mode="normal" in2="BackgroundImageFix" result="effect1_dropShadow_313_540"/>
<feBlend mode="normal" in="SourceGraphic" in2="effect1_dropShadow_313_540" result="shape"/>
</filter>
<linearGradient id="paint0_linear_313_540" x1="17.9896" y1="186.206" x2="88.7356" y2="145.361" gradientUnits="userSpaceOnUse">
<stop stop-color="white" stop-opacity="0.4"/>
<stop offset="1" stop-color="white" stop-opacity="0"/>
</linearGradient>
<linearGradient id="paint1_linear_313_540" x1="26.8679" y1="79.2112" x2="132.846" y2="18.0247" gradientUnits="userSpaceOnUse">
<stop stop-color="white" stop-opacity="0.4"/>
<stop offset="1" stop-color="white" stop-opacity="0"/>
</linearGradient>
<linearGradient id="paint2_linear_313_540" x1="-8.45058" y1="140.411" x2="62.1795" y2="99.6326" gradientUnits="userSpaceOnUse">
<stop stop-color="white" stop-opacity="0.4"/>
<stop offset="1" stop-color="white" stop-opacity="0"/>
</linearGradient>
<linearGradient id="paint3_linear_313_540" x1="62.1427" y1="99.5688" x2="167.944" y2="38.4841" gradientUnits="userSpaceOnUse">
<stop stop-color="white" stop-opacity="0.4"/>
<stop offset="1" stop-color="white" stop-opacity="0"/>
</linearGradient>
<linearGradient id="paint4_linear_313_540" x1="203.469" y1="140.347" x2="256.458" y2="109.754" gradientUnits="userSpaceOnUse">
<stop stop-color="white" stop-opacity="0.4"/>
<stop offset="1" stop-color="white" stop-opacity="0"/>
</linearGradient>
<linearGradient id="paint5_linear_313_540" x1="115.031" y1="27.445" x2="228.277" y2="68.6631" gradientUnits="userSpaceOnUse">
<stop stop-color="white" stop-opacity="0.4"/>
<stop offset="1" stop-color="white" stop-opacity="0"/>
</linearGradient>
<linearGradient id="paint6_linear_313_540" x1="115.247" y1="191.281" x2="220.933" y2="130.263" gradientUnits="userSpaceOnUse">
<stop stop-color="white" stop-opacity="0.4"/>
<stop offset="1" stop-color="white" stop-opacity="0"/>
</linearGradient>
<linearGradient id="paint7_linear_313_540" x1="44.5385" y1="232.191" x2="115.284" y2="191.345" gradientUnits="userSpaceOnUse">
<stop stop-color="white" stop-opacity="0.4"/>
<stop offset="1" stop-color="white" stop-opacity="0"/>
</linearGradient>
<linearGradient id="paint8_linear_313_540" x1="115.144" y1="232.109" x2="221.122" y2="170.923" gradientUnits="userSpaceOnUse">
<stop stop-color="white" stop-opacity="0.4"/>
<stop offset="1" stop-color="white" stop-opacity="0"/>
</linearGradient>
<linearGradient id="paint9_linear_313_540" x1="88.6197" y1="145.428" x2="194.421" y2="84.343" gradientUnits="userSpaceOnUse">
<stop stop-color="white" stop-opacity="0.5"/>
<stop offset="1" stop-color="white" stop-opacity="0"/>
</linearGradient>
<clipPath id="clip0_313_540">
<rect width="250" height="250" fill="white"/>
</clipPath>
</defs>
</svg>
