<svg width="1568" height="468" viewBox="0 0 1568 468" fill="none" xmlns="http://www.w3.org/2000/svg">
<g clip-path="url(#clip0_107_1566)">
<path d="M643.947 65.5901L651.197 38.5347H790.938L720.87 298.819H558.993C553.743 290.523 550.002 281.363 547.944 271.763H700.102L755.604 65.5901L643.947 65.5901ZM782.419 428.906C793.751 428.891 804.763 425.149 813.757 418.256C822.751 411.363 829.227 401.702 832.187 390.763L882.107 205.636C883.924 198.916 887.903 192.981 893.428 188.746C898.953 184.512 905.718 182.213 912.68 182.204H1000.24L1007.49 155.149H907.146C895.815 155.163 884.803 158.905 875.809 165.798C866.815 172.691 860.338 182.352 857.379 193.29L807.459 378.419C805.641 385.139 801.663 391.073 796.137 395.308C790.612 399.543 783.847 401.841 776.886 401.85H650.055L642.805 428.906H782.419ZM821.273 177.882L771.352 363.011H660.462L652.16 393.994H776.886C782.12 393.987 787.206 392.259 791.36 389.075C795.515 385.891 798.506 381.429 799.873 376.377L849.793 191.248C853.203 178.642 860.667 167.509 871.032 159.565C881.397 151.621 894.087 147.309 907.146 147.292H1009.59L1017.89 116.309H901.613C883.314 116.309 865.526 122.342 851.002 133.473C836.478 144.604 826.029 160.213 821.273 177.882V177.882ZM841.648 -0.304688H661.604L653.302 30.6784H801.189L726.891 306.675H564.608C572.381 316.376 582.241 324.199 593.455 329.563C604.668 334.927 616.947 337.694 629.378 337.658H750.669L841.648 -0.304688ZM912.68 190.061C907.446 190.067 902.359 191.795 898.205 194.979C894.051 198.163 891.059 202.625 889.692 207.678L839.772 392.806C836.362 405.411 828.899 416.545 818.534 424.489C808.169 432.433 795.478 436.745 782.419 436.762H640.7L632.398 467.745H787.952C806.251 467.745 824.039 461.712 838.563 450.581C853.087 439.45 863.536 423.842 868.293 406.172L918.213 221.044H989.829L998.131 190.06L912.68 190.061ZM694.082 263.907L745.353 73.4464H641.842L633.54 104.43H704.894L670.304 232.924H549.012V232.924C546.288 243.012 545.492 253.524 546.665 263.907L694.082 263.907Z" fill="url(#paint0_linear_107_1566)"/>
<path d="M1567.65 232.926H926.91L924.306 242.599H1567.65V232.926Z" fill="#47CFED"/>
<path d="M1567.65 94.7578H827.934L825.33 104.43H1567.65V94.7578Z" fill="#47CFED"/>
<path d="M0.0898438 104.43H621.66L624.264 94.7578H0.0898438V104.43Z" fill="#47CFED"/>
<path d="M0.0898438 242.598H534.976L537.58 232.926H0.0898438V242.598Z" fill="#47CFED"/>
<path d="M3.6 151.8C3.6 171.8 25.1 174.5 25.1 188.9C25.1 193.9 22.9 195.7 19.4 195.7C15.9 195.7 13.7 193.9 13.7 188.9V183.9H3.3V188.2C3.3 199.4 8.9 205.8 19.7 205.8C30.5 205.8 36.1 199.4 36.1 188.2C36.1 168.2 14.6 165.5 14.6 151.1C14.6 146.1 16.6 144.2 20.1 144.2C23.6 144.2 25.6 146.1 25.6 151.1V154H36V151.8C36 140.6 30.5 134.2 19.8 134.2C9.1 134.2 3.6 140.6 3.6 151.8ZM39.2023 145H50.7023V205H61.7023V145H73.2023V135H39.2023V145ZM98.6383 135H82.5383L71.3383 205H81.4383L83.3383 192.3H96.8383L98.7383 205H109.838L98.6383 135ZM90.0383 147.4L95.3383 182.8H84.7383L90.0383 147.4ZM111.761 145H123.261V205H134.261V145H145.761V135H111.761V145ZM161.605 145H180.605V135H150.605V205H180.605V195H161.605V174.5H176.705V164.5H161.605V145ZM213.049 151.1C213.049 146.1 215.249 144.2 218.749 144.2C222.249 144.2 224.449 146.1 224.449 151.1V188.9C224.449 193.9 222.249 195.8 218.749 195.8C215.249 195.8 213.049 193.9 213.049 188.9V151.1ZM202.049 188.2C202.049 199.4 207.949 205.8 218.749 205.8C229.549 205.8 235.449 199.4 235.449 188.2V151.8C235.449 140.6 229.549 134.2 218.749 134.2C207.949 134.2 202.049 140.6 202.049 151.8V188.2ZM253.598 145H271.698V135H242.598V205H253.598V176.1H267.798V166.1H253.598V145Z" fill="url(#paint1_linear_107_1566)"/>
<path d="M3.6 151.8C3.6 171.8 25.1 174.5 25.1 188.9C25.1 193.9 22.9 195.7 19.4 195.7C15.9 195.7 13.7 193.9 13.7 188.9V183.9H3.3V188.2C3.3 199.4 8.9 205.8 19.7 205.8C30.5 205.8 36.1 199.4 36.1 188.2C36.1 168.2 14.6 165.5 14.6 151.1C14.6 146.1 16.6 144.2 20.1 144.2C23.6 144.2 25.6 146.1 25.6 151.1V154H36V151.8C36 140.6 30.5 134.2 19.8 134.2C9.1 134.2 3.6 140.6 3.6 151.8ZM39.2023 145H50.7023V205H61.7023V145H73.2023V135H39.2023V145ZM98.6383 135H82.5383L71.3383 205H81.4383L83.3383 192.3H96.8383L98.7383 205H109.838L98.6383 135ZM90.0383 147.4L95.3383 182.8H84.7383L90.0383 147.4ZM111.761 145H123.261V205H134.261V145H145.761V135H111.761V145ZM161.605 145H180.605V135H150.605V205H180.605V195H161.605V174.5H176.705V164.5H161.605V145ZM213.049 151.1C213.049 146.1 215.249 144.2 218.749 144.2C222.249 144.2 224.449 146.1 224.449 151.1V188.9C224.449 193.9 222.249 195.8 218.749 195.8C215.249 195.8 213.049 193.9 213.049 188.9V151.1ZM202.049 188.2C202.049 199.4 207.949 205.8 218.749 205.8C229.549 205.8 235.449 199.4 235.449 188.2V151.8C235.449 140.6 229.549 134.2 218.749 134.2C207.949 134.2 202.049 140.6 202.049 151.8V188.2ZM253.598 145H271.698V135H242.598V205H253.598V176.1H267.798V166.1H253.598V145Z" fill="#FFF6E6"/>
<path d="M1439.21 152.2C1439.21 172.4 1417.41 175.8 1417.41 196.4V205H1449.21V195H1428.41C1428.31 194.5 1428.31 194 1428.31 193.5C1428.31 182 1450.21 173.8 1450.21 151.8C1450.21 140.6 1444.61 134.2 1433.81 134.2C1423.01 134.2 1417.41 140.6 1417.41 151.8V158.6H1427.81V151.1C1427.81 146.1 1430.01 144.2 1433.51 144.2C1437.01 144.2 1439.21 145.9 1439.21 152.2ZM1467.15 151.1C1467.15 146.1 1469.35 144.2 1472.85 144.2C1476.35 144.2 1478.55 146.1 1478.55 151.1V188.9C1478.55 193.9 1476.35 195.8 1472.85 195.8C1469.35 195.8 1467.15 193.9 1467.15 188.9V151.1ZM1456.15 188.2C1456.15 199.4 1462.05 205.8 1472.85 205.8C1483.65 205.8 1489.55 199.4 1489.55 188.2V151.8C1489.55 140.6 1483.65 134.2 1472.85 134.2C1462.05 134.2 1456.15 140.6 1456.15 151.8V188.2ZM1518.5 152.2C1518.5 172.4 1496.7 175.8 1496.7 196.4V205H1528.5V195H1507.7C1507.6 194.5 1507.6 194 1507.6 193.5C1507.6 182 1529.5 173.8 1529.5 151.8C1529.5 140.6 1523.9 134.2 1513.1 134.2C1502.3 134.2 1496.7 140.6 1496.7 151.8V158.6H1507.1V151.1C1507.1 146.1 1509.3 144.2 1512.8 144.2C1516.3 144.2 1518.5 145.9 1518.5 152.2ZM1543.15 151.6H1551.65V205H1562.65V135H1555.25C1553.55 139.7 1551.65 143.8 1543.15 143.8V151.6Z" fill="url(#paint2_linear_107_1566)"/>
<path d="M1439.21 152.2C1439.21 172.4 1417.41 175.8 1417.41 196.4V205H1449.21V195H1428.41C1428.31 194.5 1428.31 194 1428.31 193.5C1428.31 182 1450.21 173.8 1450.21 151.8C1450.21 140.6 1444.61 134.2 1433.81 134.2C1423.01 134.2 1417.41 140.6 1417.41 151.8V158.6H1427.81V151.1C1427.81 146.1 1430.01 144.2 1433.51 144.2C1437.01 144.2 1439.21 145.9 1439.21 152.2ZM1467.15 151.1C1467.15 146.1 1469.35 144.2 1472.85 144.2C1476.35 144.2 1478.55 146.1 1478.55 151.1V188.9C1478.55 193.9 1476.35 195.8 1472.85 195.8C1469.35 195.8 1467.15 193.9 1467.15 188.9V151.1ZM1456.15 188.2C1456.15 199.4 1462.05 205.8 1472.85 205.8C1483.65 205.8 1489.55 199.4 1489.55 188.2V151.8C1489.55 140.6 1483.65 134.2 1472.85 134.2C1462.05 134.2 1456.15 140.6 1456.15 151.8V188.2ZM1518.5 152.2C1518.5 172.4 1496.7 175.8 1496.7 196.4V205H1528.5V195H1507.7C1507.6 194.5 1507.6 194 1507.6 193.5C1507.6 182 1529.5 173.8 1529.5 151.8C1529.5 140.6 1523.9 134.2 1513.1 134.2C1502.3 134.2 1496.7 140.6 1496.7 151.8V158.6H1507.1V151.1C1507.1 146.1 1509.3 144.2 1512.8 144.2C1516.3 144.2 1518.5 145.9 1518.5 152.2ZM1543.15 151.6H1551.65V205H1562.65V135H1555.25C1553.55 139.7 1551.65 143.8 1543.15 143.8V151.6Z" fill="#FFF6E6"/>
</g>
<defs>
<linearGradient id="paint0_linear_107_1566" x1="561.407" y1="186.664" x2="969.725" y2="296.072" gradientUnits="userSpaceOnUse">
<stop stop-color="#544D40"/>
<stop offset="0.16667" stop-color="#ACA495"/>
<stop offset="0.33333" stop-color="#DBD2C3"/>
<stop offset="0.5" stop-color="#E9E0D1"/>
<stop offset="0.66667" stop-color="#DBD2C3"/>
<stop offset="0.83333" stop-color="#ACA495"/>
<stop offset="1" stop-color="#544D40"/>
</linearGradient>
<linearGradient id="paint1_linear_107_1566" x1="-7.97917" y1="187.298" x2="36.5365" y2="29.4632" gradientUnits="userSpaceOnUse">
<stop stop-color="#544D40"/>
<stop offset="0.16667" stop-color="#ACA495"/>
<stop offset="0.33333" stop-color="#DBD2C3"/>
<stop offset="0.5" stop-color="#E9E0D1"/>
<stop offset="0.66667" stop-color="#DBD2C3"/>
<stop offset="0.83333" stop-color="#ACA495"/>
<stop offset="1" stop-color="#544D40"/>
</linearGradient>
<linearGradient id="paint2_linear_107_1566" x1="1171.02" y1="187.298" x2="1215.54" y2="29.4632" gradientUnits="userSpaceOnUse">
<stop stop-color="#544D40"/>
<stop offset="0.16667" stop-color="#ACA495"/>
<stop offset="0.33333" stop-color="#DBD2C3"/>
<stop offset="0.5" stop-color="#E9E0D1"/>
<stop offset="0.66667" stop-color="#DBD2C3"/>
<stop offset="0.83333" stop-color="#ACA495"/>
<stop offset="1" stop-color="#544D40"/>
</linearGradient>
<clipPath id="clip0_107_1566">
<rect width="1568" height="468" fill="white"/>
</clipPath>
</defs>
</svg>
