<svg width="1900" height="1900" viewBox="0 0 1900 1900" fill="none" xmlns="http://www.w3.org/2000/svg">
<path d="M162 22H422V166H162V22Z" stroke="black" stroke-width="10"/>
<path d="M162 206H422V350H162V206Z" stroke="black" stroke-width="10"/>
<path d="M427 92H512V183.5M427 275H512V183.5M512 183.5H596" stroke="black" stroke-width="10"/>
<path d="M601 111H861V255H601V111Z" stroke="black" stroke-width="10"/>
<path d="M601 620H861V764H601V620Z" stroke="black" stroke-width="10"/>
<path d="M866 181H951V439.5M866 692.5H951V439.5M951 439.5H1035" stroke="black" stroke-width="10"/>
<path d="M1040 366H1300V510H1040V366Z" stroke="black" stroke-width="10"/>
<path d="M1479 866H1739V1010H1479V866Z" stroke="black" stroke-width="10"/>
<path d="M1040 1388H1300V1532H1040V1388Z" stroke="black" stroke-width="10"/>
<path d="M1305 436H1390V938M1305 1460.5H1390V938M1390 938H1474" stroke="black" stroke-width="10"/>
<path d="M601 1134H861V1278H601V1134Z" stroke="black" stroke-width="10"/>
<path d="M601 1643H861V1787H601V1643Z" stroke="black" stroke-width="10"/>
<path d="M866 1204H951V1462.5M866 1715.5H951V1462.5M951 1462.5H1035" stroke="black" stroke-width="10"/>
<path d="M162 531H422V675H162V531Z" stroke="black" stroke-width="10"/>
<path d="M162 715H422V859H162V715Z" stroke="black" stroke-width="10"/>
<path d="M427 601H512V692.5M427 784H512V692.5M512 692.5H596" stroke="black" stroke-width="10"/>
<path d="M162 1040H422V1184H162V1040Z" stroke="black" stroke-width="10"/>
<path d="M162 1224H422V1368H162V1224Z" stroke="black" stroke-width="10"/>
<path d="M427 1110H512V1201.5M427 1293H512V1201.5M512 1201.5H596" stroke="black" stroke-width="10"/>
<path d="M162 1549H422V1693H162V1549Z" stroke="black" stroke-width="10"/>
<path d="M162 1733H422V1877H162V1733Z" stroke="black" stroke-width="10"/>
<path d="M427 1619H512V1710.5M427 1802H512V1710.5M512 1710.5H596" stroke="black" stroke-width="10"/>
</svg>
