<svg width="750" height="750" viewBox="0 0 750 750" fill="none" xmlns="http://www.w3.org/2000/svg">
<path d="M374.952 375.008L68.1034 197.849V552.168L374.952 729.326V375.008Z" fill="#50B1B2"/>
<path d="M374.952 375.008L68.1034 197.849V552.168L374.952 729.326V375.008Z" fill="url(#paint0_linear_1_33)" fill-opacity="0.2"/>
<path d="M68.1034 197.849L374.952 375.008L681.801 197.849L374.952 20.6897L68.1034 197.849Z" fill="url(#paint1_linear_1_33)"/>
<path d="M374.951 729.326L681.8 552.168V197.849L374.951 375.008V729.326Z" fill="#4690C3"/>
<path d="M374.951 729.326L681.8 552.168V197.849L374.951 375.008V729.326Z" fill="url(#paint2_linear_1_33)" fill-opacity="0.2"/>
<path d="M374.952 26.4632L676.8 200.735V549.282L374.952 723.554L73.1035 549.282V200.736L374.952 26.4632Z" stroke="black" stroke-opacity="0.3" stroke-width="10"/>
<path d="M298.137 281.766C298.137 390.083 181.242 408.314 181.242 518.775V564.89H351.759V511.268H240.226C239.69 508.587 239.69 505.906 239.69 503.225C239.69 441.56 357.121 397.59 357.121 279.621C357.121 219.565 327.093 185.247 269.182 185.247C211.27 185.247 181.242 219.565 181.242 279.621V316.084H237.008V275.868C237.008 249.057 248.805 238.869 267.573 238.869C286.341 238.869 298.137 247.985 298.137 281.766Z" fill="#FFF6E6"/>
<path d="M510.74 281.766C510.74 390.083 393.844 408.314 393.844 518.775V564.89H564.362V511.268H452.828C452.292 508.587 452.292 505.906 452.292 503.225C452.292 441.56 569.724 397.59 569.724 279.621C569.724 219.565 539.696 185.247 481.784 185.247C423.872 185.247 393.844 219.565 393.844 279.621V316.084H449.611V275.868C449.611 249.057 461.408 238.869 480.175 238.869C498.943 238.869 510.74 247.985 510.74 281.766Z" fill="#FFF6E6"/>
<path d="M176.242 564.89V569.89H181.242H351.759H356.759V564.89V511.268V506.268H351.759H244.721C244.692 505.323 244.69 504.319 244.69 503.225C244.69 489.44 251.244 476.212 262.034 461.866C269.364 452.122 278.262 442.328 287.868 431.757C292.501 426.658 297.298 421.378 302.163 415.835C331.732 382.148 362.121 340.486 362.121 279.621C362.121 248.823 354.422 223.845 338.554 206.534C322.621 189.152 299.138 180.247 269.182 180.247C239.225 180.247 215.743 189.152 199.809 206.534C183.941 223.845 176.242 248.823 176.242 279.621V316.084V321.084H181.242H237.008H242.008V316.084V275.868C242.008 263.083 244.835 255.264 248.973 250.654C253.014 246.153 259.075 243.869 267.573 243.869C276.18 243.869 282.05 245.937 286.016 250.807C290.211 255.957 293.137 265.246 293.137 281.766C293.137 333.713 265.371 364.026 236.098 395.985L236.002 396.089C206.821 427.947 176.242 461.415 176.242 518.775V564.89ZM388.844 564.89V569.89H393.844H564.362H569.362V564.89V511.268V506.268H564.362H457.324C457.294 505.323 457.292 504.319 457.292 503.225C457.292 489.44 463.847 476.212 474.637 461.866C481.966 452.122 490.864 442.328 500.47 431.757C505.103 426.658 509.9 421.378 514.766 415.835C544.334 382.148 574.724 340.486 574.724 279.621C574.724 248.823 567.024 223.845 551.156 206.534C535.223 189.152 511.741 180.247 481.784 180.247C451.827 180.247 428.345 189.152 412.411 206.534C396.544 223.845 388.844 248.823 388.844 279.621V316.084V321.084H393.844H449.611H454.611V316.084V275.868C454.611 263.083 457.438 255.264 461.576 250.654C465.617 246.153 471.677 243.869 480.175 243.869C488.782 243.869 494.652 245.937 498.618 250.807C502.813 255.957 505.74 265.246 505.74 281.766C505.74 333.713 477.974 364.026 448.701 395.985L448.605 396.089C419.424 427.947 388.844 461.415 388.844 518.775V564.89Z" stroke="#123036" stroke-opacity="0.5" stroke-width="10"/>
<defs>
<linearGradient id="paint0_linear_1_33" x1="221.528" y1="197.849" x2="221.528" y2="729.326" gradientUnits="userSpaceOnUse">
<stop stop-color="#4D9EB0"/>
<stop offset="0.479167" stop-color="#51C092"/>
<stop offset="1" stop-color="#BDFFDB"/>
</linearGradient>
<linearGradient id="paint1_linear_1_33" x1="-24.6155" y1="453.715" x2="78.9595" y2="-162.057" gradientUnits="userSpaceOnUse">
<stop stop-color="#4D4AED"/>
<stop offset="0.25" stop-color="#4CA3BF"/>
<stop offset="0.5" stop-color="#52CCC5"/>
<stop offset="0.75" stop-color="#2FED70"/>
<stop offset="1" stop-color="#15E7C1"/>
</linearGradient>
<linearGradient id="paint2_linear_1_33" x1="386.515" y1="388.017" x2="648.364" y2="649.866" gradientUnits="userSpaceOnUse">
<stop stop-color="#50C097"/>
<stop offset="0.479167" stop-color="#3A81CE"/>
<stop offset="1" stop-color="#BCFEDA"/>
</linearGradient>
</defs>
</svg>
