<svg width="631" height="218" viewBox="0 0 631 218" fill="none" xmlns="http://www.w3.org/2000/svg">
<path d="M20 20.4H41C42.7 20.4 44 21.7 44 23.4V137.3C44 139 42.7 140.3 41 140.3H20C18.3 140.3 17 139 17 137.3V23.4C17 21.7 18.3 20.4 20 20.4Z" fill="white"/>
<path d="M148.3 16V137.5C148.3 139 147.1 140.3 145.5 140.3H124.9C123.4 140.3 122.1 139.1 122.1 137.5V134.3C122.1 131.9 119.2 130.6 117.4 132.3C115.1 134.5 112.6 136.3 109.7 137.7C104.8 140.2 99.2 141.4 92.9 141.4C84.2 141.4 76.6 139.4 70 135.5C63.4 131.6 58.4 126 54.8 118.8C51.2 111.6 49.4 103.3 49.4 94C49.4 84.8 51.2 76.6 54.7 69.5C58.2 62.4 63.3 56.9 69.8 53.1C76.3 49.2 83.8 47.3 92.2 47.3C102.5 47.3 110.9 50.4 117.3 56.4C119.1 58.1 122 56.8 122 54.4V16C122 14.5 123.2 13.2 124.8 13.2H145.4C147.1 13.2 148.3 14.4 148.3 16ZM115.7 113C120 108.3 122.1 102.1 122.1 94.6C122.1 87.1 120 80.9 115.7 76.2C111.4 71.5 105.9 69.1 99.2 69.1C92.3 69.1 86.8 71.5 82.5 76.2C78.2 80.9 76 87.1 75.9 94.6C76 102.1 78.2 108.3 82.5 113C86.8 117.7 92.3 120.1 99.2 120.1C105.9 120.1 111.4 117.7 115.7 113Z" fill="white"/>
<path d="M235.1 60.1C242.8 68.7 246.7 80.6 246.7 95.9C246.7 97.4 246.7 98.6 246.7 99.7C246.7 101.1 245.5 102.2 244.1 102.2H184C182.2 102.2 180.9 104 181.5 105.7C183.1 109.9 185.6 113.3 189 115.8C193.2 119.1 198.3 120.7 204.2 120.7C208.5 120.7 212.7 119.9 216.7 118.2C220 116.8 223 115 225.7 112.6C226.7 111.7 228.3 111.8 229.2 112.7L239.5 123.2C240.5 124.2 240.5 125.9 239.5 126.9C235.2 131.2 230.1 134.6 224.3 137.1C217.6 139.9 210.2 141.3 201.9 141.3C192.2 141.3 183.7 139.4 176.5 135.5C169.2 131.6 163.7 126.1 159.7 119.1C155.8 112 153.8 103.9 153.8 94.6C153.8 85.2 155.8 77 159.8 69.8C163.8 62.7 169.4 57.1 176.6 53.2C183.8 49.3 192 47.3 201.3 47.3C216.1 47.3 227.3 51.6 235.1 60.1ZM218.9 86.7C220.5 86.7 221.7 85.3 221.5 83.8C220.8 79.1 219 75.2 215.9 72.2C212.2 68.5 207.4 66.7 201.3 66.7C195.6 66.7 190.8 68.5 187 72.1C183.9 75 181.7 78.8 180.4 83.5C180 85.1 181.2 86.7 182.9 86.7H218.9V86.7Z" fill="white"/>
<path d="M291.7 51.7C296.2 49.1 301.4 47.6 307.3 47.2C308.6 47.1 309.7 48.1 309.7 49.4V69.7C309.7 70.9 308.7 71.9 307.5 71.9C306.9 71.9 306.3 71.9 305.6 71.9C297.5 71.9 291.1 74.1 286.3 78.5C281.6 82.9 279.2 88.7 279.2 96.1V138.3C279.2 139.5 278.2 140.5 277 140.5H255C253.8 140.5 252.8 139.5 252.8 138.3V50.5C252.8 49.3 253.8 48.3 255 48.3H277C278.2 48.3 279.2 49.3 279.2 50.5V57.9C279.2 59.9 281.7 60.9 283 59.3C285.5 56.1 288.4 53.6 291.7 51.7Z" fill="white"/>
<path d="M368 138.1V134.9C368 133 365.8 132 364.4 133.3C362 135.4 359.2 137.1 356.1 138.4C351.2 140.5 345.5 141.5 339.1 141.5C329.4 141.5 321.7 138.8 316 133.5C310.3 128.2 307.4 121.3 307.4 112.7C307.4 104 310.5 97.3 316.6 92.4C322.7 87.5 331.4 85.1 342.6 84.9H367.9V83.2C367.9 78.3 366.3 74.5 363 71.8C359.7 69.1 355 67.8 348.7 67.8C340.7 67.8 332.3 70.1 323.4 74.7C322.3 75.3 320.9 74.8 320.4 73.7L314 59.6C313.5 58.5 314 57.2 315 56.7C321.6 53.5 327.8 51.2 333.6 49.6C340 47.9 347 47 354.7 47C367 47 376.6 49.9 383.4 55.7C390.2 61.5 393.6 69.6 393.8 80L394 137.9C394 139.1 393 140.1 391.8 140.1H370.3C369 140.3 368 139.3 368 138.1ZM360.6 118.7C364.5 116.1 366.9 112.9 367.7 109C367.7 108.8 367.8 108.6 367.8 108.5V102.7C367.8 101.5 366.8 100.5 365.6 100.5H347.1C342 100.5 338.2 101.3 335.7 103C333.2 104.7 332 107.3 332 111C332 114.5 333.3 117.4 335.9 119.5C338.5 121.6 342 122.7 346.4 122.7C351.9 122.7 356.6 121.3 360.6 118.7Z" fill="white"/>
<path d="M409.5 141.7C407.3 141.7 405.3 141 403.7 139.6C402.1 138.2 401.2 136.3 401.2 133.8C401.2 131.7 401.9 130 403.4 128.6C404.9 127.1 407.1 126.2 409.2 126.2C410.8 126.2 412.3 126.6 413.7 127.5C415 128.4 416.1 129.7 416.8 131.4C417.5 133.1 417.9 135.2 417.9 137.8C417.9 141.2 417.2 144.3 415.8 147.3C414.4 150.2 412.6 152.6 410.6 154.3C408.5 156 406.7 156.9 405 156.9C403.9 156.9 403.1 156.5 402.4 155.9C401.7 155.2 401.4 154.4 401.4 153.5C401.4 152.1 402.1 151 403.5 150.1C407.5 147.8 409.5 145 409.5 141.7Z" fill="white"/>
<path d="M445.1 48.8H448.3C449.9 48.8 451.2 50.1 451.2 51.7V137.3C451.2 138.9 449.9 140.2 448.3 140.2H445.1C443.5 140.2 442.2 138.9 442.2 137.3V51.7C442.1 50.1 443.4 48.8 445.1 48.8Z" fill="white"/>
<path d="M518.5 78.6C523.2 83.4 525.5 89.9 525.5 98.2V138C525.5 139.3 524.5 140.3 523.2 140.3H518.9C517.6 140.3 516.6 139.3 516.6 138V100.3C516.6 93.8 514.8 88.8 511.2 85.1C507.6 81.4 502.6 79.6 496.3 79.6C489.2 79.7 483.6 81.9 479.4 86.1C475.2 90.4 472.8 96.1 472.1 103.3C472.1 103.4 472.1 103.5 472.1 103.5V138C472.1 139.3 471.1 140.3 469.8 140.3H465.6C464.3 140.3 463.3 139.3 463.3 138V74C463.3 72.7 464.3 71.7 465.6 71.7H469.8C471.1 71.7 472.1 72.7 472.1 74V79.6C472.1 81.7 474.8 82.7 476.1 81.1C477.9 78.9 480 77.1 482.5 75.7C487.1 73 492.6 71.6 499.2 71.5C507.4 71.5 513.8 73.8 518.5 78.6Z" fill="white"/>
<path d="M566.3 79.2C561.4 79.2 557 80.3 553.1 82.6C549.2 84.9 546.1 88 543.9 92.1C541.7 96.2 540.6 100.8 540.6 106C540.6 111.2 541.7 115.9 543.9 120C546.1 124.1 549.1 127.3 553.1 129.6C557 131.9 561.4 133 566.3 133C570.7 133 574.8 132.2 578.5 130.6C581.6 129.3 584.2 127.5 586.5 125.3C587.3 124.5 588.5 124.6 589.3 125.4L591.6 127.8C592.3 128.6 592.3 129.8 591.6 130.6C588.8 133.6 585.4 135.9 581.4 137.7C576.8 139.7 571.6 140.7 566 140.7C559.5 140.7 553.6 139.2 548.5 136.3C543.4 133.4 539.3 129.3 536.4 124C533.5 118.7 532 112.8 532 106.1C532 99.5 533.5 93.5 536.4 88.2C539.3 82.9 543.4 78.8 548.5 75.9C553.6 73 559.5 71.5 566 71.5C571.3 71.5 576.2 72.4 580.6 74.1C584.4 75.6 587.7 77.6 590.6 80.1C591.4 80.8 591.4 82 590.8 82.8L588.4 85.7C587.7 86.5 586.5 86.7 585.7 86C580.1 81.5 573.8 79.2 566.3 79.2Z" fill="white"/>
<path d="M607.2 141.6C605.2 141.6 603.4 140.9 601.9 139.6C600.4 138.2 599.6 136.3 599.6 133.9C599.6 131.8 600.3 130 601.8 128.5C603.3 127 605.1 126.3 607.2 126.3C609.3 126.3 611.2 127 612.7 128.5C614.2 130 615.1 132.2 615 134.3C614.9 137.3 613.6 139.4 611.1 140.7C609.9 141.3 608.6 141.6 607.2 141.6Z" fill="white"/>
<path d="M18.4 201.3V177.9H28.7C33.6 177.9 36.3 181.2 36.3 185.2C36.3 189.2 33.6 192.5 28.7 192.5H22.5V201.3H18.4V201.3ZM32.1 185.2C32.1 183 30.4 181.5 28.1 181.5H22.4V188.9H28.1C30.5 188.9 32.1 187.4 32.1 185.2Z" fill="white"/>
<path d="M48.5 201.3V199.4C47.2 200.9 45.2 201.7 43 201.7C40.3 201.7 37.1 199.8 37.1 196.1C37.1 192.2 40.2 190.6 43 190.6C45.3 190.6 47.2 191.3 48.5 192.8V190.3C48.5 188.3 46.8 187.1 44.5 187.1C42.6 187.1 40.9 187.8 39.5 189.3L38 186.7C40 184.8 42.4 184 45.1 184C48.9 184 52.2 185.6 52.2 190.1V201.4H48.5V201.3ZM48.5 197.4V194.8C47.6 193.6 46 193 44.5 193C42.4 193 40.8 194.2 40.8 196.1C40.8 198 42.4 199.2 44.5 199.2C46 199.2 47.6 198.6 48.5 197.4Z" fill="white"/>
<path d="M56.1 201.3V184.3H59.8V186.8C61.1 185.2 63.1 183.9 65.3 183.9V187.6C65 187.5 64.6 187.5 64.2 187.5C62.6 187.5 60.5 188.6 59.8 189.8V201.4H56.1V201.3Z" fill="white"/>
<path d="M66.4 192.8C66.4 187.9 70 183.9 75 183.9C80.1 183.9 83.3 187.8 83.3 193.1V194H70.2C70.5 196.5 72.4 198.7 75.6 198.7C77.3 198.7 79.2 198 80.4 196.8L82.1 199.2C80.4 200.8 77.9 201.7 75.2 201.7C70.1 201.7 66.4 198.1 66.4 192.8ZM74.9 186.9C71.8 186.9 70.3 189.3 70.2 191.4H79.8C79.6 189.4 78.3 186.9 74.9 186.9Z" fill="white"/>
<path d="M97.5 201.3V190.7C97.5 188 96.1 187.2 94.1 187.2C92.2 187.2 90.6 188.3 89.7 189.4V201.3H86V184.3H89.7V186.6C90.8 185.3 93 183.9 95.7 183.9C99.4 183.9 101.2 185.9 101.2 189.3V201.2H97.5V201.3Z" fill="white"/>
<path d="M105.9 197.3V187.5H103.1V184.3H105.9V179.7H109.6V184.3H113V187.5H109.6V196.4C109.6 197.6 110.2 198.4 111.2 198.4C111.9 198.4 112.5 198.1 112.8 197.8L113.7 200.6C113 201.2 111.9 201.7 110.3 201.7C107.4 201.7 105.9 200.1 105.9 197.3Z" fill="white"/>
<path d="M122.6 192.8C122.6 187.9 125.9 183.9 131.3 183.9C136.7 183.9 140 187.9 140 192.8C140 197.6 136.7 201.7 131.3 201.7C125.9 201.7 122.6 197.6 122.6 192.8ZM136.2 192.8C136.2 189.8 134.5 187.2 131.3 187.2C128.2 187.2 126.4 189.8 126.4 192.8C126.4 195.8 128.2 198.5 131.3 198.5C134.5 198.4 136.2 195.8 136.2 192.8Z" fill="white"/>
<path d="M143.8 201.3V187.5H141V184.3H143.8V183.4C143.8 179.7 145.9 177.5 149.1 177.5C150.6 177.5 152.2 177.9 153.2 179L151.8 181.3C151.3 180.8 150.7 180.6 149.9 180.6C148.4 180.6 147.5 181.5 147.5 183.4V184.3H150.9V187.5H147.5V201.3H143.8V201.3Z" fill="white"/>
<path d="M159.6 198L161.9 194.8C163.5 196.5 166 198.1 169.3 198.1C172.7 198.1 174 196.5 174 194.9C174 190 160.4 193 160.4 184.4C160.4 180.5 163.8 177.5 168.9 177.5C172.5 177.5 175.5 178.7 177.6 180.8L175.3 183.9C173.4 182 170.9 181.2 168.5 181.2C166.1 181.2 164.6 182.4 164.6 184.1C164.6 188.5 178.2 185.8 178.2 194.5C178.2 198.4 175.4 201.8 169.1 201.8C164.9 201.7 161.7 200.1 159.6 198Z" fill="white"/>
<path d="M180 192.8C180 187.9 183.6 183.9 188.6 183.9C193.7 183.9 196.9 187.8 196.9 193.1V194H183.8C184.1 196.5 186 198.7 189.2 198.7C190.9 198.7 192.8 198 194 196.8L195.7 199.2C194 200.8 191.5 201.7 188.8 201.7C183.8 201.7 180 198.1 180 192.8ZM188.6 186.9C185.5 186.9 184 189.3 183.9 191.4H193.5C193.3 189.4 191.9 186.9 188.6 186.9Z" fill="white"/>
<path d="M211.2 201.3V190.7C211.2 188 209.8 187.2 207.8 187.2C205.9 187.2 204.3 188.3 203.4 189.4V201.3H199.7V184.3H203.4V186.6C204.5 185.3 206.7 183.9 209.4 183.9C213.1 183.9 214.9 185.9 214.9 189.3V201.2H211.2V201.3Z" fill="white"/>
<path d="M217.7 192.8C217.7 187.7 221.3 183.9 226.4 183.9C229.7 183.9 231.7 185.3 232.9 186.9L230.5 189.1C229.6 187.8 228.3 187.1 226.6 187.1C223.5 187.1 221.5 189.4 221.5 192.7C221.5 196 223.6 198.4 226.6 198.4C228.2 198.4 229.5 197.7 230.5 196.4L232.9 198.7C231.7 200.3 229.7 201.7 226.4 201.7C221.4 201.7 217.7 197.9 217.7 192.8Z" fill="white"/>
<path d="M246.8 201.3V190.6C246.8 187.9 245.5 187.2 243.4 187.2C241.5 187.2 239.9 188.3 239 189.4V201.3H235.3V177.9H239V186.6C240.1 185.3 242.3 183.9 245 183.9C248.7 183.9 250.5 185.8 250.5 189.3V201.3H246.8Z" fill="white"/>
<path d="M264.8 201.3V199.4C263.5 200.9 261.5 201.7 259.3 201.7C256.6 201.7 253.4 199.8 253.4 196.1C253.4 192.2 256.5 190.6 259.3 190.6C261.6 190.6 263.5 191.3 264.8 192.8V190.3C264.8 188.3 263.1 187.1 260.8 187.1C258.9 187.1 257.2 187.8 255.8 189.3L254.3 186.7C256.3 184.8 258.7 184 261.4 184C265.2 184 268.5 185.6 268.5 190.1V201.4H264.8V201.3ZM264.8 197.4V194.8C263.9 193.6 262.3 193 260.8 193C258.7 193 257.1 194.2 257.1 196.1C257.1 198 258.7 199.2 260.8 199.2C262.4 199.2 263.9 198.6 264.8 197.4Z" fill="white"/>
<path d="M273.7 205.9L272 204.5C273.1 203.8 274.3 202.4 274.5 201.2C274.4 201.2 274.1 201.3 273.9 201.3C272.7 201.3 271.8 200.4 271.8 199.1C271.8 197.8 272.9 196.7 274.2 196.7C275.6 196.7 276.9 197.9 276.9 199.9C277 202.3 275.6 204.6 273.7 205.9Z" fill="white"/>
<path d="M288.4 201.3V177.9H304.4V181.5H292.5V187.5H304.2V191.1H292.5V201.2H288.4V201.3Z" fill="white"/>
<path d="M307.2 201.3V184.3H310.9V186.8C312.2 185.2 314.2 183.9 316.4 183.9V187.6C316.1 187.5 315.7 187.5 315.3 187.5C313.7 187.5 311.6 188.6 310.9 189.8V201.4H307.2V201.3Z" fill="white"/>
<path d="M317.5 192.8C317.5 187.9 320.8 183.9 326.2 183.9C331.6 183.9 334.9 187.9 334.9 192.8C334.9 197.6 331.6 201.7 326.2 201.7C320.8 201.7 317.5 197.6 317.5 192.8ZM331.1 192.8C331.1 189.8 329.4 187.2 326.2 187.2C323.1 187.2 321.3 189.8 321.3 192.8C321.3 195.8 323.1 198.5 326.2 198.5C329.3 198.4 331.1 195.8 331.1 192.8Z" fill="white"/>
<path d="M348.2 201.3V199.4C346.9 200.9 344.9 201.7 342.7 201.7C340 201.7 336.8 199.8 336.8 196.1C336.8 192.2 339.9 190.6 342.7 190.6C345 190.6 346.9 191.3 348.2 192.8V190.3C348.2 188.3 346.5 187.1 344.2 187.1C342.3 187.1 340.6 187.8 339.2 189.3L337.7 186.7C339.7 184.8 342.1 184 344.8 184C348.6 184 351.9 185.6 351.9 190.1V201.4H348.2V201.3ZM348.2 197.4V194.8C347.3 193.6 345.7 193 344.2 193C342.1 193 340.5 194.2 340.5 196.1C340.5 198 342.1 199.2 344.2 199.2C345.7 199.2 347.3 198.6 348.2 197.4Z" fill="white"/>
<path d="M355.8 201.3V177.9H359.5V201.3H355.8Z" fill="white"/>
<path d="M373.7 201.3V199.4C372.4 200.9 370.4 201.7 368.2 201.7C365.5 201.7 362.3 199.8 362.3 196.1C362.3 192.2 365.4 190.6 368.2 190.6C370.5 190.6 372.4 191.3 373.7 192.8V190.3C373.7 188.3 372 187.1 369.7 187.1C367.8 187.1 366.1 187.8 364.7 189.3L363.2 186.7C365.2 184.8 367.6 184 370.3 184C374.1 184 377.4 185.6 377.4 190.1V201.4H373.7V201.3ZM373.7 197.4V194.8C372.8 193.6 371.2 193 369.7 193C367.6 193 366 194.2 366 196.1C366 198 367.6 199.2 369.7 199.2C371.3 199.2 372.8 198.6 373.7 197.4Z" fill="white"/>
<path d="M404.3 201.3C403.7 200.8 403 200.1 402.2 199.3C400.4 200.8 398.3 201.8 395.6 201.8C391.5 201.8 388.1 199.6 388.1 195.1C388.1 191.5 390.5 189.6 393.2 188.3C392.2 186.5 391.5 184.8 391.5 183.1C391.5 180 394.2 177.6 397.9 177.6C401.1 177.6 403.7 179.3 403.7 182.4C403.7 185.9 400.8 187.5 397.9 188.9C398.7 190 399.5 191 400.2 191.8C401 192.7 401.7 193.7 402.5 194.5C403.6 192.8 404.4 191 404.8 189.6L407.8 191C407 192.9 405.9 195 404.6 196.8C406 198.3 407.5 199.8 409.2 201.4H404.3V201.3ZM400.2 197.1C399 195.8 397.9 194.6 397.3 193.8C396.4 192.8 395.5 191.6 394.7 190.5C393.2 191.5 392 192.7 392 194.7C392 197.3 393.9 198.7 396.1 198.7C397.7 198.7 399 198.1 400.2 197.1ZM396.4 186.6C398.6 185.5 400.4 184.4 400.4 182.5C400.4 181.1 399.4 180.2 398 180.2C396.5 180.2 395.2 181.4 395.2 183.1C395.3 184.2 395.7 185.4 396.4 186.6Z" fill="white"/>
<path d="M419.5 201.3V177.9H435.5V181.5H423.6V187.5H435.3V191.1H423.6V201.2H419.5V201.3Z" fill="white"/>
<path d="M449.8 201.3V199C448.6 200.3 446.5 201.7 443.8 201.7C440.1 201.7 438.3 199.8 438.3 196.3V184.3H442V194.9C442 197.5 443.3 198.4 445.4 198.4C447.3 198.4 448.9 197.3 449.7 196.2V184.3H453.4V201.3H449.8V201.3Z" fill="white"/>
<path d="M455.9 199L457.6 196.4C458.8 197.6 461.1 198.8 463.3 198.8C465.5 198.8 466.7 197.9 466.7 196.6C466.7 193.3 456.4 195.7 456.4 189.1C456.4 186.3 458.8 184 463.1 184C466 184 468.2 185 469.7 186.4L468.2 189C467.2 187.9 465.3 187 463.2 187C461.3 187 460.1 187.9 460.1 189.1C460.1 192.1 470.4 189.8 470.4 196.6C470.4 199.6 467.9 201.9 463.3 201.9C460.3 201.7 457.7 200.7 455.9 199Z" fill="white"/>
<path d="M472.6 179.9C472.6 178.6 473.6 177.6 474.9 177.6C476.2 177.6 477.2 178.6 477.2 179.9C477.2 181.2 476.2 182.2 474.9 182.2C473.6 182.2 472.6 181.2 472.6 179.9ZM473 201.3V184.3H476.7V201.3H473Z" fill="white"/>
<path d="M479.6 192.8C479.6 187.9 482.9 183.9 488.3 183.9C493.7 183.9 497 187.9 497 192.8C497 197.6 493.7 201.7 488.3 201.7C482.9 201.7 479.6 197.6 479.6 192.8ZM493.2 192.8C493.2 189.8 491.5 187.2 488.3 187.2C485.2 187.2 483.4 189.8 483.4 192.8C483.4 195.8 485.2 198.5 488.3 198.5C491.5 198.4 493.2 195.8 493.2 192.8Z" fill="white"/>
<path d="M511.4 201.3V190.7C511.4 188 510 187.2 508 187.2C506.1 187.2 504.5 188.3 503.6 189.4V201.3H499.9V184.3H503.6V186.6C504.7 185.3 506.9 183.9 509.6 183.9C513.3 183.9 515.1 185.9 515.1 189.3V201.2H511.4V201.3Z" fill="white"/>
<path d="M518.1 189.6C518.1 182.4 523.5 177.5 530.4 177.5C535.1 177.5 538.1 179.9 539.8 182.7L536.3 184.5C535.2 182.5 532.9 181.1 530.4 181.1C525.8 181.1 522.3 184.6 522.3 189.6C522.3 194.5 525.7 198.1 530.4 198.1C532.9 198.1 535.2 196.6 536.3 194.7L539.8 196.5C538 199.3 535.1 201.8 530.4 201.8C523.4 201.7 518.1 196.8 518.1 189.6Z" fill="white"/>
<path d="M553.5 201.3V190.6C553.5 187.9 552.2 187.2 550.1 187.2C548.2 187.2 546.6 188.3 545.7 189.4V201.3H542V177.9H545.7V186.6C546.8 185.3 549 183.9 551.7 183.9C555.4 183.9 557.2 185.8 557.2 189.3V201.3H553.5Z" fill="white"/>
<path d="M571.5 201.3V199.4C570.2 200.9 568.2 201.7 566 201.7C563.3 201.7 560.1 199.8 560.1 196.1C560.1 192.2 563.2 190.6 566 190.6C568.3 190.6 570.2 191.3 571.5 192.8V190.3C571.5 188.3 569.8 187.1 567.5 187.1C565.6 187.1 563.9 187.8 562.5 189.3L561 186.7C563 184.8 565.4 184 568.1 184C571.9 184 575.2 185.6 575.2 190.1V201.4H571.5V201.3ZM571.5 197.4V194.8C570.6 193.6 569 193 567.5 193C565.4 193 563.8 194.2 563.8 196.1C563.8 198 565.4 199.2 567.5 199.2C569 199.2 570.6 198.6 571.5 197.4Z" fill="white"/>
<path d="M579.1 201.3V184.3H582.8V186.8C584.1 185.2 586.1 183.9 588.3 183.9V187.6C588 187.5 587.6 187.5 587.2 187.5C585.6 187.5 583.5 188.6 582.8 189.8V201.4H579.1V201.3Z" fill="white"/>
<path d="M591.2 197.3V187.5H588.4V184.3H591.2V179.7H594.9V184.3H598.3V187.5H594.9V196.4C594.9 197.6 595.5 198.4 596.5 198.4C597.2 198.4 597.8 198.1 598.1 197.8L599 200.6C598.3 201.2 597.2 201.7 595.6 201.7C592.6 201.7 591.2 200.1 591.2 197.3Z" fill="white"/>
<path d="M599.3 199L601 196.4C602.2 197.6 604.5 198.8 606.7 198.8C608.9 198.8 610.1 197.9 610.1 196.6C610.1 193.3 599.8 195.7 599.8 189.1C599.8 186.3 602.2 184 606.5 184C609.4 184 611.6 185 613.1 186.4L611.6 189C610.6 187.9 608.7 187 606.6 187C604.7 187 603.5 187.9 603.5 189.1C603.5 192.1 613.8 189.8 613.8 196.6C613.8 199.6 611.3 201.9 606.7 201.9C603.6 201.7 601 200.7 599.3 199Z" fill="white"/>
</svg>
