<svg width="54" height="54" viewBox="0 0 54 54" fill="none" xmlns="http://www.w3.org/2000/svg">
<path fill-rule="evenodd" clip-rule="evenodd" d="M4.02821 17.9612C2.79364 17.2557 2 15.933 2 14.4338C2 12.2293 3.85189 10.3774 6.05647 10.3774C6.67376 10.3774 7.20285 10.4656 7.64377 10.7302L24.6632 0.941839C25.4568 0.500922 26.4268 0.236328 27.3087 0.236328C28.2787 0.236328 29.1605 0.500922 29.9542 0.941839L44.4163 9.31927C43.3581 10.0247 42.5644 11.0829 42.0353 12.3174L28.0141 4.20459C27.7496 4.02822 27.4851 4.02826 27.2205 4.02826C26.956 4.02826 26.6914 4.1164 26.4268 4.20459L9.84835 13.7284C9.84835 13.993 9.93651 14.1693 9.93651 14.4338C9.93651 16.1975 8.79013 17.6085 7.29101 18.2258C7.20283 18.2258 7.02649 18.3139 6.93831 18.3139H6.85009C6.76191 18.3139 6.58557 18.4021 6.49739 18.4021H6.40917C6.23281 18.4021 6.14462 18.4021 5.96826 18.4021C5.79189 18.4021 5.61554 18.4021 5.43918 18.4021H5.35096C5.26278 18.4021 5.08644 18.4021 4.99826 18.3139H4.91004C4.64549 18.2258 4.29276 18.1376 4.02821 17.9612ZM52.0001 14.4338C52.0001 15.6684 51.471 16.7266 50.5891 17.4321V36.5679C50.5891 38.5079 49.5309 40.2716 47.9436 41.2417L33.4815 49.5309C33.4815 48.2082 33.0406 46.8854 32.2469 45.9154L46.0036 37.9789C46.5327 37.7144 46.7972 37.1852 46.7972 36.5679V18.3139C45.1217 17.7848 43.8872 16.2857 43.8872 14.4338C43.8872 13.552 44.1517 12.7584 44.6808 12.0529C44.769 11.9648 44.8572 11.7884 44.9454 11.7002C45.2099 11.4356 45.3863 11.2593 45.6508 11.0829C45.6508 11.0829 45.739 11.0829 45.739 10.9947C45.8272 10.9065 45.9154 10.9065 46.0917 10.8183C46.0917 10.8183 46.18 10.8184 46.18 10.7302C46.3563 10.642 46.4445 10.6419 46.6209 10.5538C46.9736 10.4656 47.4145 10.3774 47.8554 10.3774C50.1482 10.3774 52.0001 12.2293 52.0001 14.4338ZM31.3651 49.7072C31.3651 49.8836 31.3651 50.1482 31.2769 50.3246V50.4128C30.9242 52.2646 29.3369 53.7637 27.3087 53.7637C25.545 53.7637 24.0459 52.6173 23.5168 51.03L6.76193 41.3298C5.08644 40.3598 4.11643 38.5962 4.11643 36.6562V20.3422C4.73371 20.5186 5.43919 20.6949 6.05647 20.6949C6.67376 20.6949 7.29104 20.6067 7.82014 20.4304V36.6562C7.82014 37.2734 8.17284 37.8025 8.61376 38.0671L24.3104 47.1499C25.0159 46.2681 26.1623 45.739 27.3968 45.739C28.7196 45.739 29.866 46.3563 30.6596 47.4145C30.6596 47.4145 30.6596 47.4145 30.6596 47.5027C30.7478 47.5908 30.7478 47.6791 30.836 47.7673C30.836 47.7673 30.836 47.8554 30.9242 47.8554C30.9242 47.9436 31.0124 48.0317 31.0124 48.0317C31.0124 48.0317 31.0124 48.12 31.1006 48.12C31.1006 48.2082 31.1888 48.2963 31.1888 48.2963C31.1888 48.3845 31.1887 48.3845 31.2769 48.4727C31.2769 48.5608 31.3651 48.5609 31.3651 48.6491C31.3651 48.7373 31.3651 48.7372 31.4533 48.8254C31.4533 48.9136 31.4533 48.9137 31.4533 49.0018C31.4533 49.09 31.4533 49.1781 31.4533 49.2663C31.4533 49.3545 31.4533 49.3546 31.4533 49.4428C31.3651 49.4428 31.3651 49.5309 31.3651 49.7072Z" fill="#FCEB14"/>
<path d="M38.7033 17.6119C38.6143 17.4339 38.6143 17.4338 38.6143 17.3448C38.6143 17.3448 38.6143 17.2558 38.5252 17.2558L38.4363 17.1669C38.4363 17.1669 38.3472 17.1668 38.3472 17.0778L38.2582 16.9888L31.1373 13.0723L31.4044 12.3602C31.7604 12.0042 31.9385 11.6481 31.9385 11.2031V11.1141C31.9385 10.936 31.9384 10.847 31.8494 10.758C31.4934 9.60086 29.8022 8.7998 27.5769 8.7998C25.3516 8.7998 23.6604 9.60086 23.3044 10.758C23.2154 10.847 23.2154 11.0251 23.2154 11.1141V11.2031C23.2154 11.6481 23.3934 12.0932 23.7495 12.3602L24.0165 13.0723L16.8956 16.9888L16.8066 17.0778C16.8066 17.0778 16.7176 17.0778 16.7176 17.1669L16.6286 17.2558L16.5395 17.3448C16.5395 17.3448 16.5396 17.4338 16.4505 17.5228V17.6119C16.4505 17.7009 16.4505 17.7899 16.4505 17.8789V28.5602L12.4451 30.5185C12.4451 30.5185 12.3561 30.5185 12.3561 30.6075C12.3561 30.6075 12.267 30.6075 12.267 30.6965L12.178 30.7855L12.089 30.8745C12.089 30.8745 12.089 30.9635 12 30.9635V31.0525C12 31.1415 12 31.1415 12 31.2305V31.3195V34.702C12 35.058 12.178 35.3251 12.4451 35.5031L22.5923 41.1107C22.5923 41.1107 22.6813 41.1108 22.7703 41.1998H22.8593C22.9484 41.1998 23.0374 41.1998 23.1264 41.1998C23.2154 41.1998 23.3044 41.1998 23.3934 41.1998H23.4824C23.5714 41.1998 23.5714 41.1997 23.6604 41.1107L38.3472 33.1888C38.6142 33.0108 38.8813 32.7437 38.8813 32.3877V17.7009C38.7033 17.7899 38.7033 17.7009 38.7033 17.6119ZM26.5088 13.9624L26.3307 13.6064C26.6868 13.6954 27.1319 13.6954 27.5769 13.6954C28.022 13.6954 28.467 13.6954 28.8231 13.6064L27.8439 15.7426C27.7549 15.7426 27.3989 15.7426 27.3099 15.7426L26.5088 13.9624ZM27.6659 10.669C28.9121 10.669 29.7132 11.025 30.0692 11.2031C29.8022 11.3811 29.0011 11.7371 27.6659 11.7371C26.4197 11.7371 25.6187 11.3811 25.2626 11.2031C25.5297 11.025 26.3307 10.669 27.6659 10.669ZM24.9066 14.8525L25.6187 16.4547C25.7967 17.1668 26.5978 17.7009 27.6659 17.7009C28.734 17.7009 29.5352 17.1668 29.7132 16.4547L30.4253 14.8525L35.8549 17.8789L27.6659 22.4184L19.4769 17.8789L24.9066 14.8525ZM18.4088 19.4811L26.6868 24.1096V33.1888L18.4088 28.5602V19.4811ZM22.1473 38.8854L13.8692 34.2569V33.0107L22.1473 37.6394V38.8854ZM23.1264 36.0371L18.3198 33.3668L14.9373 31.4976L17.4296 30.2514L25.6187 34.791L23.1264 36.0371ZM36.8341 32.0316L24.1055 38.8854V37.6394L28.111 35.6811C28.111 35.6811 28.2 35.6811 28.2 35.5921C28.2 35.5921 28.289 35.5921 28.289 35.5031L28.378 35.4141C28.378 35.4141 28.378 35.325 28.467 35.325C28.467 35.325 28.467 35.236 28.556 35.236V35.147C28.556 35.058 28.556 35.0581 28.556 34.969V34.8799V24.1986L36.8341 19.5701V32.0316V32.0316Z" fill="#FCEB14"/>
</svg>
