<svg width="84" height="84" viewBox="0 0 84 84" fill="none" xmlns="http://www.w3.org/2000/svg">
<g clip-path="url(#clip0_402_703)">
<path d="M82.7557 28.7985C85.2405 21.333 83.7459 6.43939 78.9309 0.940921C78.2998 0.219658 77.1257 0.322696 76.6013 1.11889L70.6707 10.1019C69.2048 11.9004 66.5646 12.3125 64.5743 11.0573C58.1387 6.99205 50.4512 4.63153 42.1907 4.63153C33.9301 4.63153 26.2424 6.99205 19.8068 11.0573C17.8265 12.3125 15.1863 11.891 13.7108 10.1019L7.78001 1.11889C7.25585 0.322696 6.08129 0.229025 5.45037 0.940921C0.635785 6.44872 -0.859063 21.3423 1.62588 28.7985C2.45096 31.2808 2.67422 33.9035 2.18888 36.4513C1.70353 38.9804 1.2182 42.0341 1.2182 44.1604C1.2182 65.9951 19.5641 83.6891 42.181 83.6891C64.8075 83.6891 83.1435 65.9858 83.1435 44.1604C83.1435 42.0341 82.6584 38.9804 82.1733 36.4513C81.6975 33.9035 81.9302 31.2808 82.7557 28.7985ZM42.181 74.8658C24.6893 74.8658 10.4688 61.1335 10.4688 44.2541C10.4688 43.7015 10.4882 43.1581 10.5173 42.6149C11.1483 31.1122 18.3895 21.2861 28.6302 16.6026C32.7362 14.7104 37.3373 13.6614 42.1907 13.6614C47.044 13.6614 51.6354 14.7104 55.7512 16.612C65.9917 21.2955 73.2329 31.1309 73.8639 42.6242C73.8932 43.1675 73.9125 43.7202 73.9125 44.2634C73.9026 61.1335 59.6727 74.8658 42.181 74.8658Z" fill="#1EB4D4"/>
<path d="M55.9254 56.0378L47.8203 42.4741L40.8703 31.1681C40.7052 30.8965 40.4043 30.7372 40.084 30.7372H33.4445C33.1144 30.7372 32.8135 30.9058 32.6486 31.1869C32.4835 31.4585 32.4932 31.7957 32.6583 32.0673L39.3074 42.8488L30.3869 55.9816C30.2025 56.2533 30.1927 56.5996 30.348 56.8806C30.5033 57.1615 30.8139 57.3398 31.1537 57.3398H37.8417C38.1523 57.3398 38.4436 57.1898 38.6085 56.9367L43.4329 49.668L47.762 56.9089C47.9271 57.1806 48.2279 57.3491 48.5484 57.3491H55.1392C55.469 57.3491 55.7701 57.1806 55.9254 56.9089C56.0906 56.6466 56.0906 56.3095 55.9254 56.0378Z" fill="#1EB4D4"/>
</g>
<defs>
<clipPath id="clip0_402_703">
<rect width="84" height="84" fill="white"/>
</clipPath>
</defs>
</svg>
