<svg width="54" height="54" viewBox="0 0 54 54" fill="none" xmlns="http://www.w3.org/2000/svg">
<path fill-rule="evenodd" clip-rule="evenodd" d="M4.02821 17.9612C2.79364 17.2557 2 15.933 2 14.4338C2 12.2293 3.85189 10.3774 6.05647 10.3774C6.67376 10.3774 7.20285 10.4656 7.64377 10.7302L24.6632 0.941839C25.4568 0.500922 26.4268 0.236328 27.3087 0.236328C28.2787 0.236328 29.1605 0.500922 29.9542 0.941839L44.4163 9.31927C43.3581 10.0247 42.5644 11.0829 42.0353 12.3174L28.0141 4.20459C27.7496 4.02822 27.4851 4.02826 27.2205 4.02826C26.956 4.02826 26.6914 4.1164 26.4268 4.20459L9.84835 13.7284C9.84835 13.993 9.93651 14.1693 9.93651 14.4338C9.93651 16.1975 8.79013 17.6085 7.29101 18.2258C7.20283 18.2258 7.02649 18.3139 6.93831 18.3139H6.85009C6.76191 18.3139 6.58557 18.4021 6.49739 18.4021H6.40917C6.23281 18.4021 6.14462 18.4021 5.96826 18.4021C5.79189 18.4021 5.61554 18.4021 5.43918 18.4021H5.35096C5.26278 18.4021 5.08644 18.4021 4.99826 18.3139H4.91004C4.64549 18.2258 4.29276 18.1376 4.02821 17.9612ZM52.0001 14.4338C52.0001 15.6684 51.471 16.7266 50.5891 17.4321V36.5679C50.5891 38.5079 49.5309 40.2716 47.9436 41.2417L33.4815 49.5309C33.4815 48.2082 33.0406 46.8854 32.2469 45.9154L46.0036 37.9789C46.5327 37.7144 46.7972 37.1852 46.7972 36.5679V18.3139C45.1217 17.7848 43.8872 16.2857 43.8872 14.4338C43.8872 13.552 44.1517 12.7584 44.6808 12.0529C44.769 11.9648 44.8572 11.7884 44.9454 11.7002C45.2099 11.4356 45.3863 11.2593 45.6508 11.0829C45.6508 11.0829 45.739 11.0829 45.739 10.9947C45.8272 10.9065 45.9154 10.9065 46.0917 10.8183C46.0917 10.8183 46.18 10.8184 46.18 10.7302C46.3563 10.642 46.4445 10.6419 46.6209 10.5538C46.9736 10.4656 47.4145 10.3774 47.8554 10.3774C50.1482 10.3774 52.0001 12.2293 52.0001 14.4338ZM31.3651 49.7072C31.3651 49.8836 31.3651 50.1482 31.2769 50.3246V50.4128C30.9242 52.2646 29.3369 53.7637 27.3087 53.7637C25.545 53.7637 24.0459 52.6173 23.5168 51.03L6.76193 41.3298C5.08644 40.3598 4.11643 38.5962 4.11643 36.6562V20.3422C4.73371 20.5186 5.43919 20.6949 6.05647 20.6949C6.67376 20.6949 7.29104 20.6067 7.82014 20.4304V36.6562C7.82014 37.2734 8.17284 37.8025 8.61376 38.0671L24.3104 47.1499C25.0159 46.2681 26.1623 45.739 27.3968 45.739C28.7196 45.739 29.866 46.3563 30.6596 47.4145C30.6596 47.4145 30.6596 47.4145 30.6596 47.5027C30.7478 47.5908 30.7478 47.6791 30.836 47.7673C30.836 47.7673 30.836 47.8554 30.9242 47.8554C30.9242 47.9436 31.0124 48.0317 31.0124 48.0317C31.0124 48.0317 31.0124 48.12 31.1006 48.12C31.1006 48.2082 31.1888 48.2963 31.1888 48.2963C31.1888 48.3845 31.1887 48.3845 31.2769 48.4727C31.2769 48.5608 31.3651 48.5609 31.3651 48.6491C31.3651 48.7373 31.3651 48.7372 31.4533 48.8254C31.4533 48.9136 31.4533 48.9137 31.4533 49.0018C31.4533 49.09 31.4533 49.1781 31.4533 49.2663C31.4533 49.3545 31.4533 49.3546 31.4533 49.4428C31.3651 49.4428 31.3651 49.5309 31.3651 49.7072Z" fill="#1BCBE2"/>
<path d="M32.1129 27.2916C32.5223 27.2916 32.8498 26.9642 32.8498 26.5549V23.2802C32.8498 22.9527 32.686 22.7071 32.3585 22.6252L26.9553 20.5785C26.7915 20.4967 26.6278 20.4967 26.4641 20.5785L21.0608 22.6252C20.8152 22.7071 20.5696 23.0346 20.5696 23.2802V24.7538C20.5696 25.1631 20.8971 25.4906 21.3064 25.4906C21.7157 25.4906 22.0432 25.1631 22.0432 24.7538V24.3444L25.9729 25.8181V31.3032L22.0432 29.8296V26.9642C22.0432 26.5549 21.7157 26.2274 21.3064 26.2274C20.8971 26.2274 20.5696 26.5549 20.5696 26.9642V30.4027C20.5696 30.7301 20.7333 30.9758 21.0608 31.0576L26.7915 33.1862V33.1043C26.8734 33.1043 26.8734 33.1043 26.9553 33.1043L32.3585 31.0576C32.6041 30.9758 32.8498 30.6483 32.8498 30.4027V28.8471C32.8498 28.4378 32.5223 28.1103 32.1129 28.1103C31.7036 28.1103 31.3761 28.4378 31.3761 28.8471V29.9115L27.4465 31.385V25.8999L31.3761 24.4263V26.6368C31.458 26.9642 31.7855 27.2916 32.1129 27.2916ZM30.0662 23.2802L26.7097 24.5082L23.3531 23.2802L26.7097 22.0522L30.0662 23.2802Z" fill="#1BCBE2"/>
<path d="M39.9722 24.2623C38.8261 24.2623 37.8436 24.9991 37.5162 26.0634H34.4871C34.0777 26.0634 33.7502 26.3909 33.7502 26.8002C33.7502 27.2095 34.0777 27.537 34.4871 27.537H37.5162C37.8436 28.6013 38.8261 29.3381 39.9722 29.3381C41.364 29.3381 42.5101 28.192 42.5101 26.8002C42.592 25.4085 41.4458 24.2623 39.9722 24.2623ZM41.1183 26.8002C41.1183 27.4552 40.6271 27.9464 39.9722 27.9464C39.3173 27.9464 38.826 27.4552 38.826 26.8002C38.826 26.1453 39.3173 25.654 39.9722 25.654C40.6271 25.654 41.1183 26.2271 41.1183 26.8002Z" fill="#1BCBE2"/>
<path d="M32.1947 22.0522C32.3584 22.0522 32.604 21.9703 32.6859 21.8065L33.5865 20.906C34.1595 21.2335 34.8145 21.479 35.4694 21.479C37.3524 21.479 38.9079 19.9236 38.9079 18.0406C38.9079 16.1577 37.3524 14.6021 35.4694 14.6021C33.5865 14.6021 32.031 16.1577 32.031 18.0406C32.031 18.6956 32.1947 19.3504 32.604 19.9235L31.7035 20.8241C31.4579 21.0697 31.4579 21.5609 31.7035 21.8065C31.8672 21.9703 32.031 22.0522 32.1947 22.0522ZM33.5046 18.0406C33.5046 16.9763 34.4051 16.0758 35.4694 16.0758C36.5337 16.0758 37.4342 16.9763 37.4342 18.0406C37.4342 19.1049 36.5337 20.0055 35.4694 20.0055C34.4051 20.0055 33.5046 19.1049 33.5046 18.0406Z" fill="#1BCBE2"/>
<path d="M35.5513 32.1217C34.8964 32.1217 34.2414 32.2855 33.6684 32.6949L32.7678 31.7942C32.5222 31.5486 32.031 31.5486 31.7854 31.7942C31.6217 31.958 31.5398 32.1218 31.5398 32.2855C31.5398 32.4493 31.6217 32.6949 31.7854 32.7767L32.6859 33.6772C32.3585 34.2503 32.1129 34.9053 32.1129 35.5602C32.1129 37.4432 33.6684 38.9987 35.5513 38.9987C37.4343 38.9987 38.9898 37.4432 38.9898 35.5602C38.9079 33.6773 37.4343 32.1217 35.5513 32.1217ZM37.5161 35.5602C37.5161 36.6245 36.6156 37.525 35.5513 37.525C34.487 37.525 33.5865 36.6245 33.5865 35.5602C33.5865 34.496 34.487 33.5954 35.5513 33.5954C36.6156 33.5954 37.5161 34.496 37.5161 35.5602Z" fill="#1BCBE2"/>
<path d="M15.9849 27.537H19.014C19.4233 27.537 19.7508 27.2095 19.7508 26.8002C19.7508 26.3909 19.4233 26.0634 19.014 26.0634H15.9849C15.6574 24.9991 14.675 24.2623 13.5289 24.2623C12.1371 24.2623 10.991 25.4085 10.991 26.8002C10.991 28.192 12.1371 29.3381 13.5289 29.3381C14.675 29.3381 15.6574 28.6013 15.9849 27.537ZM14.5932 26.8002C14.5932 27.4552 14.1019 27.9464 13.447 27.9464C12.7921 27.9464 12.3009 27.4552 12.3009 26.8002C12.3009 26.1453 12.7921 25.654 13.447 25.654C14.1019 25.654 14.5932 26.2271 14.5932 26.8002Z" fill="#1BCBE2"/>
<path d="M27.4466 37.607V34.5779C27.4466 34.1685 27.1191 33.841 26.7098 33.841C26.3004 33.841 25.973 34.1685 25.973 34.5779V37.607C24.9087 37.9345 24.1719 38.9169 24.1719 40.0631C24.1719 41.4548 25.318 42.6009 26.7098 42.6009C28.1015 42.6009 29.2477 41.4548 29.2477 40.0631C29.3295 38.9169 28.5109 37.9345 27.4466 37.607ZM26.7098 41.2091C26.0548 41.2091 25.5636 40.718 25.5636 40.0631C25.5636 39.4081 26.0548 38.9169 26.7098 38.9169C27.3647 38.9169 27.8559 39.4081 27.8559 40.0631C27.8559 40.718 27.3647 41.2091 26.7098 41.2091Z" fill="#1BCBE2"/>
<path d="M26.0546 15.9939V19.023C26.0546 19.4323 26.3821 19.7598 26.7914 19.7598C27.2007 19.7598 27.5282 19.4323 27.5282 19.023V15.9939C28.5925 15.6664 29.3293 14.684 29.3293 13.5379C29.3293 12.1461 28.1832 11 26.7914 11C25.3997 11 24.2535 12.1461 24.2535 13.5379C24.1716 14.684 24.9085 15.6664 26.0546 15.9939ZM26.7095 12.4736C27.3645 12.4736 27.8557 12.9648 27.8557 13.6197C27.8557 14.2747 27.3645 14.7659 26.7095 14.7659C26.0546 14.7659 25.5634 14.2747 25.5634 13.6197C25.5634 12.9648 26.1365 12.4736 26.7095 12.4736Z" fill="#1BCBE2"/>
<path d="M20.7332 31.7945L19.8326 32.6951C19.2596 32.3676 18.6046 32.122 17.9497 32.122C16.0667 32.122 14.5112 33.6775 14.5112 35.5605C14.5112 37.4435 16.0667 38.9989 17.9497 38.9989C19.8326 38.9989 21.3881 37.4435 21.3881 35.5605C21.3881 34.9055 21.2244 34.2506 20.8151 33.6775L21.7156 32.777C21.9612 32.5314 21.9612 32.0401 21.7156 31.7945C21.5519 31.467 21.0607 31.467 20.7332 31.7945ZM19.9964 35.5605C19.9964 36.6248 19.0958 37.5252 18.0315 37.5252C16.9673 37.5252 16.0667 36.6248 16.0667 35.5605C16.0667 34.4962 16.9673 33.5956 18.0315 33.5956C19.0958 33.5956 19.9964 34.4962 19.9964 35.5605Z" fill="#1BCBE2"/>
<path d="M17.9497 21.479C18.6046 21.479 19.2596 21.3153 19.8326 20.906L20.7332 21.8065C20.8969 21.9703 21.0607 22.0522 21.2244 22.0522C21.3881 22.0522 21.6337 21.9703 21.7156 21.8065C21.8793 21.6428 21.9612 21.4791 21.9612 21.3153C21.9612 21.1516 21.8793 20.906 21.7156 20.8241L20.8151 19.9235C21.1425 19.3504 21.3881 18.6956 21.3881 18.0406C21.3881 16.1577 19.8326 14.6021 17.9497 14.6021C16.0667 14.6021 14.5112 16.1577 14.5112 18.0406C14.5931 19.9236 16.0667 21.479 17.9497 21.479ZM15.9849 18.0406C15.9849 16.9763 16.8854 16.0758 17.9497 16.0758C19.014 16.0758 19.9145 16.9763 19.9145 18.0406C19.9145 19.1049 19.014 20.0055 17.9497 20.0055C16.8854 20.0055 15.9849 19.1049 15.9849 18.0406Z" fill="#1BCBE2"/>
</svg>
